%TF.GenerationSoftware,KiCad,Pcbnew,9.0.1-9.0.1-0~ubuntu24.04.1*%
%TF.CreationDate,2025-04-06T11:53:27+01:00*%
%TF.ProjectId,ESP32 Breakout Board,45535033-3220-4427-9265-616b6f757420,rev?*%
%TF.SameCoordinates,Original*%
%TF.FileFunction,Soldermask,Bot*%
%TF.FilePolarity,Negative*%
%FSLAX46Y46*%
G04 Gerber Fmt 4.6, Leading zero omitted, Abs format (unit mm)*
G04 Created by KiCad (PCBNEW 9.0.1-9.0.1-0~ubuntu24.04.1) date 2025-04-06 11:53:27*
%MOMM*%
%LPD*%
G01*
G04 APERTURE LIST*
%ADD10C,1.700000*%
%ADD11O,1.700000X1.700000*%
%ADD12C,1.905000*%
G04 APERTURE END LIST*
D10*
%TO.C,J1*%
X166750000Y-77820000D03*
D11*
X166750000Y-80360000D03*
X166750000Y-82900000D03*
X166750000Y-85440000D03*
X166750000Y-87980000D03*
X166750000Y-90520000D03*
X166750000Y-93060000D03*
X166750000Y-95600000D03*
X166750000Y-98140000D03*
X166750000Y-100680000D03*
X166750000Y-103220000D03*
X166750000Y-105760000D03*
X166750000Y-108300000D03*
X166750000Y-110840000D03*
X166750000Y-113380000D03*
%TD*%
D12*
%TO.C,E1*%
X137000000Y-78000000D03*
X137000000Y-80540000D03*
X137000000Y-83080000D03*
X137000000Y-85620000D03*
X137000000Y-88160000D03*
X137000000Y-90700000D03*
X137000000Y-93240000D03*
X137000000Y-95780000D03*
X137000000Y-98320000D03*
X137000000Y-100860000D03*
X137000000Y-103400000D03*
X137000000Y-105940000D03*
X137000000Y-108480000D03*
X137000000Y-111020000D03*
X137000000Y-113560000D03*
X162000000Y-78000000D03*
X162000000Y-80540000D03*
X162000000Y-83080000D03*
X162000000Y-85620000D03*
X162000000Y-88160000D03*
X162000000Y-90700000D03*
X162000000Y-93240000D03*
X162000000Y-95780000D03*
X162000000Y-98320000D03*
X162000000Y-100860000D03*
X162000000Y-103400000D03*
X162000000Y-105940000D03*
X162000000Y-108480000D03*
X162000000Y-111020000D03*
X162000000Y-113560000D03*
%TD*%
D10*
%TO.C,J3*%
X174370000Y-77820000D03*
D11*
X174370000Y-80360000D03*
X174370000Y-82900000D03*
X174370000Y-85440000D03*
X174370000Y-87980000D03*
X174370000Y-90520000D03*
X174370000Y-93060000D03*
X174370000Y-95600000D03*
X174370000Y-98140000D03*
X174370000Y-100680000D03*
X174370000Y-103220000D03*
X174370000Y-105760000D03*
X174370000Y-108300000D03*
X174370000Y-110840000D03*
X174370000Y-113380000D03*
%TD*%
D10*
%TO.C,J2*%
X132460000Y-113380000D03*
D11*
X132460000Y-110840000D03*
X132460000Y-108300000D03*
X132460000Y-105760000D03*
X132460000Y-103220000D03*
X132460000Y-100680000D03*
X132460000Y-98140000D03*
X132460000Y-95600000D03*
X132460000Y-93060000D03*
X132460000Y-90520000D03*
X132460000Y-87980000D03*
X132460000Y-85440000D03*
X132460000Y-82900000D03*
X132460000Y-80360000D03*
X132460000Y-77820000D03*
%TD*%
M02*
