%TF.GenerationSoftware,KiCad,Pcbnew,9.0.1-9.0.1-0~ubuntu24.04.1*%
%TF.CreationDate,2025-04-06T11:53:27+01:00*%
%TF.ProjectId,ESP32 Breakout Board,45535033-3220-4427-9265-616b6f757420,rev?*%
%TF.SameCoordinates,Original*%
%TF.FileFunction,Legend,Top*%
%TF.FilePolarity,Positive*%
%FSLAX46Y46*%
G04 Gerber Fmt 4.6, Leading zero omitted, Abs format (unit mm)*
G04 Created by KiCad (PCBNEW 9.0.1-9.0.1-0~ubuntu24.04.1) date 2025-04-06 11:53:27*
%MOMM*%
%LPD*%
G01*
G04 APERTURE LIST*
%ADD10C,0.100000*%
%ADD11C,0.150000*%
%ADD12C,0.120000*%
G04 APERTURE END LIST*
D10*
X176500000Y-89880000D02*
X176500000Y-101380000D01*
X176500000Y-102500000D02*
X176500000Y-114500000D01*
X176500000Y-77000000D02*
X176500000Y-88500000D01*
D11*
X169726667Y-110294819D02*
X170060000Y-111294819D01*
X170060000Y-111294819D02*
X170393333Y-110294819D01*
X170726667Y-111294819D02*
X170726667Y-110294819D01*
X170726667Y-110294819D02*
X171107619Y-110294819D01*
X171107619Y-110294819D02*
X171202857Y-110342438D01*
X171202857Y-110342438D02*
X171250476Y-110390057D01*
X171250476Y-110390057D02*
X171298095Y-110485295D01*
X171298095Y-110485295D02*
X171298095Y-110628152D01*
X171298095Y-110628152D02*
X171250476Y-110723390D01*
X171250476Y-110723390D02*
X171202857Y-110771009D01*
X171202857Y-110771009D02*
X171107619Y-110818628D01*
X171107619Y-110818628D02*
X170726667Y-110818628D01*
X127435714Y-101134819D02*
X127435714Y-100134819D01*
X127435714Y-100134819D02*
X127673809Y-100134819D01*
X127673809Y-100134819D02*
X127816666Y-100182438D01*
X127816666Y-100182438D02*
X127911904Y-100277676D01*
X127911904Y-100277676D02*
X127959523Y-100372914D01*
X127959523Y-100372914D02*
X128007142Y-100563390D01*
X128007142Y-100563390D02*
X128007142Y-100706247D01*
X128007142Y-100706247D02*
X127959523Y-100896723D01*
X127959523Y-100896723D02*
X127911904Y-100991961D01*
X127911904Y-100991961D02*
X127816666Y-101087200D01*
X127816666Y-101087200D02*
X127673809Y-101134819D01*
X127673809Y-101134819D02*
X127435714Y-101134819D01*
X128959523Y-101134819D02*
X128388095Y-101134819D01*
X128673809Y-101134819D02*
X128673809Y-100134819D01*
X128673809Y-100134819D02*
X128578571Y-100277676D01*
X128578571Y-100277676D02*
X128483333Y-100372914D01*
X128483333Y-100372914D02*
X128388095Y-100420533D01*
X129435714Y-101134819D02*
X129626190Y-101134819D01*
X129626190Y-101134819D02*
X129721428Y-101087200D01*
X129721428Y-101087200D02*
X129769047Y-101039580D01*
X129769047Y-101039580D02*
X129864285Y-100896723D01*
X129864285Y-100896723D02*
X129911904Y-100706247D01*
X129911904Y-100706247D02*
X129911904Y-100325295D01*
X129911904Y-100325295D02*
X129864285Y-100230057D01*
X129864285Y-100230057D02*
X129816666Y-100182438D01*
X129816666Y-100182438D02*
X129721428Y-100134819D01*
X129721428Y-100134819D02*
X129530952Y-100134819D01*
X129530952Y-100134819D02*
X129435714Y-100182438D01*
X129435714Y-100182438D02*
X129388095Y-100230057D01*
X129388095Y-100230057D02*
X129340476Y-100325295D01*
X129340476Y-100325295D02*
X129340476Y-100563390D01*
X129340476Y-100563390D02*
X129388095Y-100658628D01*
X129388095Y-100658628D02*
X129435714Y-100706247D01*
X129435714Y-100706247D02*
X129530952Y-100753866D01*
X129530952Y-100753866D02*
X129721428Y-100753866D01*
X129721428Y-100753866D02*
X129816666Y-100706247D01*
X129816666Y-100706247D02*
X129864285Y-100658628D01*
X129864285Y-100658628D02*
X129911904Y-100563390D01*
X127435714Y-98594819D02*
X127435714Y-97594819D01*
X127435714Y-97594819D02*
X127673809Y-97594819D01*
X127673809Y-97594819D02*
X127816666Y-97642438D01*
X127816666Y-97642438D02*
X127911904Y-97737676D01*
X127911904Y-97737676D02*
X127959523Y-97832914D01*
X127959523Y-97832914D02*
X128007142Y-98023390D01*
X128007142Y-98023390D02*
X128007142Y-98166247D01*
X128007142Y-98166247D02*
X127959523Y-98356723D01*
X127959523Y-98356723D02*
X127911904Y-98451961D01*
X127911904Y-98451961D02*
X127816666Y-98547200D01*
X127816666Y-98547200D02*
X127673809Y-98594819D01*
X127673809Y-98594819D02*
X127435714Y-98594819D01*
X128959523Y-98594819D02*
X128388095Y-98594819D01*
X128673809Y-98594819D02*
X128673809Y-97594819D01*
X128673809Y-97594819D02*
X128578571Y-97737676D01*
X128578571Y-97737676D02*
X128483333Y-97832914D01*
X128483333Y-97832914D02*
X128388095Y-97880533D01*
X129530952Y-98023390D02*
X129435714Y-97975771D01*
X129435714Y-97975771D02*
X129388095Y-97928152D01*
X129388095Y-97928152D02*
X129340476Y-97832914D01*
X129340476Y-97832914D02*
X129340476Y-97785295D01*
X129340476Y-97785295D02*
X129388095Y-97690057D01*
X129388095Y-97690057D02*
X129435714Y-97642438D01*
X129435714Y-97642438D02*
X129530952Y-97594819D01*
X129530952Y-97594819D02*
X129721428Y-97594819D01*
X129721428Y-97594819D02*
X129816666Y-97642438D01*
X129816666Y-97642438D02*
X129864285Y-97690057D01*
X129864285Y-97690057D02*
X129911904Y-97785295D01*
X129911904Y-97785295D02*
X129911904Y-97832914D01*
X129911904Y-97832914D02*
X129864285Y-97928152D01*
X129864285Y-97928152D02*
X129816666Y-97975771D01*
X129816666Y-97975771D02*
X129721428Y-98023390D01*
X129721428Y-98023390D02*
X129530952Y-98023390D01*
X129530952Y-98023390D02*
X129435714Y-98071009D01*
X129435714Y-98071009D02*
X129388095Y-98118628D01*
X129388095Y-98118628D02*
X129340476Y-98213866D01*
X129340476Y-98213866D02*
X129340476Y-98404342D01*
X129340476Y-98404342D02*
X129388095Y-98499580D01*
X129388095Y-98499580D02*
X129435714Y-98547200D01*
X129435714Y-98547200D02*
X129530952Y-98594819D01*
X129530952Y-98594819D02*
X129721428Y-98594819D01*
X129721428Y-98594819D02*
X129816666Y-98547200D01*
X129816666Y-98547200D02*
X129864285Y-98499580D01*
X129864285Y-98499580D02*
X129911904Y-98404342D01*
X129911904Y-98404342D02*
X129911904Y-98213866D01*
X129911904Y-98213866D02*
X129864285Y-98118628D01*
X129864285Y-98118628D02*
X129816666Y-98071009D01*
X129816666Y-98071009D02*
X129721428Y-98023390D01*
X128007142Y-106214819D02*
X127673809Y-105738628D01*
X127435714Y-106214819D02*
X127435714Y-105214819D01*
X127435714Y-105214819D02*
X127816666Y-105214819D01*
X127816666Y-105214819D02*
X127911904Y-105262438D01*
X127911904Y-105262438D02*
X127959523Y-105310057D01*
X127959523Y-105310057D02*
X128007142Y-105405295D01*
X128007142Y-105405295D02*
X128007142Y-105548152D01*
X128007142Y-105548152D02*
X127959523Y-105643390D01*
X127959523Y-105643390D02*
X127911904Y-105691009D01*
X127911904Y-105691009D02*
X127816666Y-105738628D01*
X127816666Y-105738628D02*
X127435714Y-105738628D01*
X128340476Y-105214819D02*
X129007142Y-106214819D01*
X129007142Y-105214819D02*
X128340476Y-106214819D01*
X129578571Y-105214819D02*
X129673809Y-105214819D01*
X129673809Y-105214819D02*
X129769047Y-105262438D01*
X129769047Y-105262438D02*
X129816666Y-105310057D01*
X129816666Y-105310057D02*
X129864285Y-105405295D01*
X129864285Y-105405295D02*
X129911904Y-105595771D01*
X129911904Y-105595771D02*
X129911904Y-105833866D01*
X129911904Y-105833866D02*
X129864285Y-106024342D01*
X129864285Y-106024342D02*
X129816666Y-106119580D01*
X129816666Y-106119580D02*
X129769047Y-106167200D01*
X129769047Y-106167200D02*
X129673809Y-106214819D01*
X129673809Y-106214819D02*
X129578571Y-106214819D01*
X129578571Y-106214819D02*
X129483333Y-106167200D01*
X129483333Y-106167200D02*
X129435714Y-106119580D01*
X129435714Y-106119580D02*
X129388095Y-106024342D01*
X129388095Y-106024342D02*
X129340476Y-105833866D01*
X129340476Y-105833866D02*
X129340476Y-105595771D01*
X129340476Y-105595771D02*
X129388095Y-105405295D01*
X129388095Y-105405295D02*
X129435714Y-105310057D01*
X129435714Y-105310057D02*
X129483333Y-105262438D01*
X129483333Y-105262438D02*
X129578571Y-105214819D01*
X127435714Y-93514819D02*
X127435714Y-92514819D01*
X127435714Y-92514819D02*
X127673809Y-92514819D01*
X127673809Y-92514819D02*
X127816666Y-92562438D01*
X127816666Y-92562438D02*
X127911904Y-92657676D01*
X127911904Y-92657676D02*
X127959523Y-92752914D01*
X127959523Y-92752914D02*
X128007142Y-92943390D01*
X128007142Y-92943390D02*
X128007142Y-93086247D01*
X128007142Y-93086247D02*
X127959523Y-93276723D01*
X127959523Y-93276723D02*
X127911904Y-93371961D01*
X127911904Y-93371961D02*
X127816666Y-93467200D01*
X127816666Y-93467200D02*
X127673809Y-93514819D01*
X127673809Y-93514819D02*
X127435714Y-93514819D01*
X128959523Y-93514819D02*
X128388095Y-93514819D01*
X128673809Y-93514819D02*
X128673809Y-92514819D01*
X128673809Y-92514819D02*
X128578571Y-92657676D01*
X128578571Y-92657676D02*
X128483333Y-92752914D01*
X128483333Y-92752914D02*
X128388095Y-92800533D01*
X129292857Y-92514819D02*
X129959523Y-92514819D01*
X129959523Y-92514819D02*
X129530952Y-93514819D01*
X127435714Y-111294819D02*
X127435714Y-110294819D01*
X127435714Y-110294819D02*
X127673809Y-110294819D01*
X127673809Y-110294819D02*
X127816666Y-110342438D01*
X127816666Y-110342438D02*
X127911904Y-110437676D01*
X127911904Y-110437676D02*
X127959523Y-110532914D01*
X127959523Y-110532914D02*
X128007142Y-110723390D01*
X128007142Y-110723390D02*
X128007142Y-110866247D01*
X128007142Y-110866247D02*
X127959523Y-111056723D01*
X127959523Y-111056723D02*
X127911904Y-111151961D01*
X127911904Y-111151961D02*
X127816666Y-111247200D01*
X127816666Y-111247200D02*
X127673809Y-111294819D01*
X127673809Y-111294819D02*
X127435714Y-111294819D01*
X128388095Y-110390057D02*
X128435714Y-110342438D01*
X128435714Y-110342438D02*
X128530952Y-110294819D01*
X128530952Y-110294819D02*
X128769047Y-110294819D01*
X128769047Y-110294819D02*
X128864285Y-110342438D01*
X128864285Y-110342438D02*
X128911904Y-110390057D01*
X128911904Y-110390057D02*
X128959523Y-110485295D01*
X128959523Y-110485295D02*
X128959523Y-110580533D01*
X128959523Y-110580533D02*
X128911904Y-110723390D01*
X128911904Y-110723390D02*
X128340476Y-111294819D01*
X128340476Y-111294819D02*
X128959523Y-111294819D01*
X129340476Y-110390057D02*
X129388095Y-110342438D01*
X129388095Y-110342438D02*
X129483333Y-110294819D01*
X129483333Y-110294819D02*
X129721428Y-110294819D01*
X129721428Y-110294819D02*
X129816666Y-110342438D01*
X129816666Y-110342438D02*
X129864285Y-110390057D01*
X129864285Y-110390057D02*
X129911904Y-110485295D01*
X129911904Y-110485295D02*
X129911904Y-110580533D01*
X129911904Y-110580533D02*
X129864285Y-110723390D01*
X129864285Y-110723390D02*
X129292857Y-111294819D01*
X129292857Y-111294819D02*
X129911904Y-111294819D01*
X169345714Y-98594819D02*
X169345714Y-97594819D01*
X169345714Y-97594819D02*
X169583809Y-97594819D01*
X169583809Y-97594819D02*
X169726666Y-97642438D01*
X169726666Y-97642438D02*
X169821904Y-97737676D01*
X169821904Y-97737676D02*
X169869523Y-97832914D01*
X169869523Y-97832914D02*
X169917142Y-98023390D01*
X169917142Y-98023390D02*
X169917142Y-98166247D01*
X169917142Y-98166247D02*
X169869523Y-98356723D01*
X169869523Y-98356723D02*
X169821904Y-98451961D01*
X169821904Y-98451961D02*
X169726666Y-98547200D01*
X169726666Y-98547200D02*
X169583809Y-98594819D01*
X169583809Y-98594819D02*
X169345714Y-98594819D01*
X170250476Y-97594819D02*
X170869523Y-97594819D01*
X170869523Y-97594819D02*
X170536190Y-97975771D01*
X170536190Y-97975771D02*
X170679047Y-97975771D01*
X170679047Y-97975771D02*
X170774285Y-98023390D01*
X170774285Y-98023390D02*
X170821904Y-98071009D01*
X170821904Y-98071009D02*
X170869523Y-98166247D01*
X170869523Y-98166247D02*
X170869523Y-98404342D01*
X170869523Y-98404342D02*
X170821904Y-98499580D01*
X170821904Y-98499580D02*
X170774285Y-98547200D01*
X170774285Y-98547200D02*
X170679047Y-98594819D01*
X170679047Y-98594819D02*
X170393333Y-98594819D01*
X170393333Y-98594819D02*
X170298095Y-98547200D01*
X170298095Y-98547200D02*
X170250476Y-98499580D01*
X171202857Y-97594819D02*
X171821904Y-97594819D01*
X171821904Y-97594819D02*
X171488571Y-97975771D01*
X171488571Y-97975771D02*
X171631428Y-97975771D01*
X171631428Y-97975771D02*
X171726666Y-98023390D01*
X171726666Y-98023390D02*
X171774285Y-98071009D01*
X171774285Y-98071009D02*
X171821904Y-98166247D01*
X171821904Y-98166247D02*
X171821904Y-98404342D01*
X171821904Y-98404342D02*
X171774285Y-98499580D01*
X171774285Y-98499580D02*
X171726666Y-98547200D01*
X171726666Y-98547200D02*
X171631428Y-98594819D01*
X171631428Y-98594819D02*
X171345714Y-98594819D01*
X171345714Y-98594819D02*
X171250476Y-98547200D01*
X171250476Y-98547200D02*
X171202857Y-98499580D01*
X169345714Y-103674819D02*
X169345714Y-102674819D01*
X169345714Y-102674819D02*
X169583809Y-102674819D01*
X169583809Y-102674819D02*
X169726666Y-102722438D01*
X169726666Y-102722438D02*
X169821904Y-102817676D01*
X169821904Y-102817676D02*
X169869523Y-102912914D01*
X169869523Y-102912914D02*
X169917142Y-103103390D01*
X169917142Y-103103390D02*
X169917142Y-103246247D01*
X169917142Y-103246247D02*
X169869523Y-103436723D01*
X169869523Y-103436723D02*
X169821904Y-103531961D01*
X169821904Y-103531961D02*
X169726666Y-103627200D01*
X169726666Y-103627200D02*
X169583809Y-103674819D01*
X169583809Y-103674819D02*
X169345714Y-103674819D01*
X170250476Y-102674819D02*
X170869523Y-102674819D01*
X170869523Y-102674819D02*
X170536190Y-103055771D01*
X170536190Y-103055771D02*
X170679047Y-103055771D01*
X170679047Y-103055771D02*
X170774285Y-103103390D01*
X170774285Y-103103390D02*
X170821904Y-103151009D01*
X170821904Y-103151009D02*
X170869523Y-103246247D01*
X170869523Y-103246247D02*
X170869523Y-103484342D01*
X170869523Y-103484342D02*
X170821904Y-103579580D01*
X170821904Y-103579580D02*
X170774285Y-103627200D01*
X170774285Y-103627200D02*
X170679047Y-103674819D01*
X170679047Y-103674819D02*
X170393333Y-103674819D01*
X170393333Y-103674819D02*
X170298095Y-103627200D01*
X170298095Y-103627200D02*
X170250476Y-103579580D01*
X171774285Y-102674819D02*
X171298095Y-102674819D01*
X171298095Y-102674819D02*
X171250476Y-103151009D01*
X171250476Y-103151009D02*
X171298095Y-103103390D01*
X171298095Y-103103390D02*
X171393333Y-103055771D01*
X171393333Y-103055771D02*
X171631428Y-103055771D01*
X171631428Y-103055771D02*
X171726666Y-103103390D01*
X171726666Y-103103390D02*
X171774285Y-103151009D01*
X171774285Y-103151009D02*
X171821904Y-103246247D01*
X171821904Y-103246247D02*
X171821904Y-103484342D01*
X171821904Y-103484342D02*
X171774285Y-103579580D01*
X171774285Y-103579580D02*
X171726666Y-103627200D01*
X171726666Y-103627200D02*
X171631428Y-103674819D01*
X171631428Y-103674819D02*
X171393333Y-103674819D01*
X171393333Y-103674819D02*
X171298095Y-103627200D01*
X171298095Y-103627200D02*
X171250476Y-103579580D01*
X127411905Y-107754819D02*
X127983333Y-107754819D01*
X127697619Y-108754819D02*
X127697619Y-107754819D01*
X128221429Y-107754819D02*
X128888095Y-108754819D01*
X128888095Y-107754819D02*
X128221429Y-108754819D01*
X129459524Y-107754819D02*
X129554762Y-107754819D01*
X129554762Y-107754819D02*
X129650000Y-107802438D01*
X129650000Y-107802438D02*
X129697619Y-107850057D01*
X129697619Y-107850057D02*
X129745238Y-107945295D01*
X129745238Y-107945295D02*
X129792857Y-108135771D01*
X129792857Y-108135771D02*
X129792857Y-108373866D01*
X129792857Y-108373866D02*
X129745238Y-108564342D01*
X129745238Y-108564342D02*
X129697619Y-108659580D01*
X129697619Y-108659580D02*
X129650000Y-108707200D01*
X129650000Y-108707200D02*
X129554762Y-108754819D01*
X129554762Y-108754819D02*
X129459524Y-108754819D01*
X129459524Y-108754819D02*
X129364286Y-108707200D01*
X129364286Y-108707200D02*
X129316667Y-108659580D01*
X129316667Y-108659580D02*
X129269048Y-108564342D01*
X129269048Y-108564342D02*
X129221429Y-108373866D01*
X129221429Y-108373866D02*
X129221429Y-108135771D01*
X129221429Y-108135771D02*
X129269048Y-107945295D01*
X129269048Y-107945295D02*
X129316667Y-107850057D01*
X129316667Y-107850057D02*
X129364286Y-107802438D01*
X129364286Y-107802438D02*
X129459524Y-107754819D01*
X169345714Y-93514819D02*
X169345714Y-92514819D01*
X169345714Y-92514819D02*
X169583809Y-92514819D01*
X169583809Y-92514819D02*
X169726666Y-92562438D01*
X169726666Y-92562438D02*
X169821904Y-92657676D01*
X169821904Y-92657676D02*
X169869523Y-92752914D01*
X169869523Y-92752914D02*
X169917142Y-92943390D01*
X169917142Y-92943390D02*
X169917142Y-93086247D01*
X169917142Y-93086247D02*
X169869523Y-93276723D01*
X169869523Y-93276723D02*
X169821904Y-93371961D01*
X169821904Y-93371961D02*
X169726666Y-93467200D01*
X169726666Y-93467200D02*
X169583809Y-93514819D01*
X169583809Y-93514819D02*
X169345714Y-93514819D01*
X170298095Y-92610057D02*
X170345714Y-92562438D01*
X170345714Y-92562438D02*
X170440952Y-92514819D01*
X170440952Y-92514819D02*
X170679047Y-92514819D01*
X170679047Y-92514819D02*
X170774285Y-92562438D01*
X170774285Y-92562438D02*
X170821904Y-92610057D01*
X170821904Y-92610057D02*
X170869523Y-92705295D01*
X170869523Y-92705295D02*
X170869523Y-92800533D01*
X170869523Y-92800533D02*
X170821904Y-92943390D01*
X170821904Y-92943390D02*
X170250476Y-93514819D01*
X170250476Y-93514819D02*
X170869523Y-93514819D01*
X171726666Y-92514819D02*
X171536190Y-92514819D01*
X171536190Y-92514819D02*
X171440952Y-92562438D01*
X171440952Y-92562438D02*
X171393333Y-92610057D01*
X171393333Y-92610057D02*
X171298095Y-92752914D01*
X171298095Y-92752914D02*
X171250476Y-92943390D01*
X171250476Y-92943390D02*
X171250476Y-93324342D01*
X171250476Y-93324342D02*
X171298095Y-93419580D01*
X171298095Y-93419580D02*
X171345714Y-93467200D01*
X171345714Y-93467200D02*
X171440952Y-93514819D01*
X171440952Y-93514819D02*
X171631428Y-93514819D01*
X171631428Y-93514819D02*
X171726666Y-93467200D01*
X171726666Y-93467200D02*
X171774285Y-93419580D01*
X171774285Y-93419580D02*
X171821904Y-93324342D01*
X171821904Y-93324342D02*
X171821904Y-93086247D01*
X171821904Y-93086247D02*
X171774285Y-92991009D01*
X171774285Y-92991009D02*
X171726666Y-92943390D01*
X171726666Y-92943390D02*
X171631428Y-92895771D01*
X171631428Y-92895771D02*
X171440952Y-92895771D01*
X171440952Y-92895771D02*
X171345714Y-92943390D01*
X171345714Y-92943390D02*
X171298095Y-92991009D01*
X171298095Y-92991009D02*
X171250476Y-93086247D01*
X169345714Y-101134819D02*
X169345714Y-100134819D01*
X169345714Y-100134819D02*
X169583809Y-100134819D01*
X169583809Y-100134819D02*
X169726666Y-100182438D01*
X169726666Y-100182438D02*
X169821904Y-100277676D01*
X169821904Y-100277676D02*
X169869523Y-100372914D01*
X169869523Y-100372914D02*
X169917142Y-100563390D01*
X169917142Y-100563390D02*
X169917142Y-100706247D01*
X169917142Y-100706247D02*
X169869523Y-100896723D01*
X169869523Y-100896723D02*
X169821904Y-100991961D01*
X169821904Y-100991961D02*
X169726666Y-101087200D01*
X169726666Y-101087200D02*
X169583809Y-101134819D01*
X169583809Y-101134819D02*
X169345714Y-101134819D01*
X170250476Y-100134819D02*
X170869523Y-100134819D01*
X170869523Y-100134819D02*
X170536190Y-100515771D01*
X170536190Y-100515771D02*
X170679047Y-100515771D01*
X170679047Y-100515771D02*
X170774285Y-100563390D01*
X170774285Y-100563390D02*
X170821904Y-100611009D01*
X170821904Y-100611009D02*
X170869523Y-100706247D01*
X170869523Y-100706247D02*
X170869523Y-100944342D01*
X170869523Y-100944342D02*
X170821904Y-101039580D01*
X170821904Y-101039580D02*
X170774285Y-101087200D01*
X170774285Y-101087200D02*
X170679047Y-101134819D01*
X170679047Y-101134819D02*
X170393333Y-101134819D01*
X170393333Y-101134819D02*
X170298095Y-101087200D01*
X170298095Y-101087200D02*
X170250476Y-101039580D01*
X171250476Y-100230057D02*
X171298095Y-100182438D01*
X171298095Y-100182438D02*
X171393333Y-100134819D01*
X171393333Y-100134819D02*
X171631428Y-100134819D01*
X171631428Y-100134819D02*
X171726666Y-100182438D01*
X171726666Y-100182438D02*
X171774285Y-100230057D01*
X171774285Y-100230057D02*
X171821904Y-100325295D01*
X171821904Y-100325295D02*
X171821904Y-100420533D01*
X171821904Y-100420533D02*
X171774285Y-100563390D01*
X171774285Y-100563390D02*
X171202857Y-101134819D01*
X171202857Y-101134819D02*
X171821904Y-101134819D01*
X169464762Y-77274819D02*
X169798095Y-78274819D01*
X169798095Y-78274819D02*
X170131428Y-77274819D01*
X170464762Y-78274819D02*
X170464762Y-77274819D01*
X170940952Y-78274819D02*
X170940952Y-77274819D01*
X170940952Y-77274819D02*
X171512380Y-78274819D01*
X171512380Y-78274819D02*
X171512380Y-77274819D01*
X169821905Y-113311009D02*
X170155238Y-113311009D01*
X170298095Y-113834819D02*
X169821905Y-113834819D01*
X169821905Y-113834819D02*
X169821905Y-112834819D01*
X169821905Y-112834819D02*
X170298095Y-112834819D01*
X170726667Y-113834819D02*
X170726667Y-112834819D01*
X170726667Y-112834819D02*
X171298095Y-113834819D01*
X171298095Y-113834819D02*
X171298095Y-112834819D01*
X127435714Y-90974819D02*
X127435714Y-89974819D01*
X127435714Y-89974819D02*
X127673809Y-89974819D01*
X127673809Y-89974819D02*
X127816666Y-90022438D01*
X127816666Y-90022438D02*
X127911904Y-90117676D01*
X127911904Y-90117676D02*
X127959523Y-90212914D01*
X127959523Y-90212914D02*
X128007142Y-90403390D01*
X128007142Y-90403390D02*
X128007142Y-90546247D01*
X128007142Y-90546247D02*
X127959523Y-90736723D01*
X127959523Y-90736723D02*
X127911904Y-90831961D01*
X127911904Y-90831961D02*
X127816666Y-90927200D01*
X127816666Y-90927200D02*
X127673809Y-90974819D01*
X127673809Y-90974819D02*
X127435714Y-90974819D01*
X128959523Y-90974819D02*
X128388095Y-90974819D01*
X128673809Y-90974819D02*
X128673809Y-89974819D01*
X128673809Y-89974819D02*
X128578571Y-90117676D01*
X128578571Y-90117676D02*
X128483333Y-90212914D01*
X128483333Y-90212914D02*
X128388095Y-90260533D01*
X129816666Y-89974819D02*
X129626190Y-89974819D01*
X129626190Y-89974819D02*
X129530952Y-90022438D01*
X129530952Y-90022438D02*
X129483333Y-90070057D01*
X129483333Y-90070057D02*
X129388095Y-90212914D01*
X129388095Y-90212914D02*
X129340476Y-90403390D01*
X129340476Y-90403390D02*
X129340476Y-90784342D01*
X129340476Y-90784342D02*
X129388095Y-90879580D01*
X129388095Y-90879580D02*
X129435714Y-90927200D01*
X129435714Y-90927200D02*
X129530952Y-90974819D01*
X129530952Y-90974819D02*
X129721428Y-90974819D01*
X129721428Y-90974819D02*
X129816666Y-90927200D01*
X129816666Y-90927200D02*
X129864285Y-90879580D01*
X129864285Y-90879580D02*
X129911904Y-90784342D01*
X129911904Y-90784342D02*
X129911904Y-90546247D01*
X129911904Y-90546247D02*
X129864285Y-90451009D01*
X129864285Y-90451009D02*
X129816666Y-90403390D01*
X129816666Y-90403390D02*
X129721428Y-90355771D01*
X129721428Y-90355771D02*
X129530952Y-90355771D01*
X129530952Y-90355771D02*
X129435714Y-90403390D01*
X129435714Y-90403390D02*
X129388095Y-90451009D01*
X129388095Y-90451009D02*
X129340476Y-90546247D01*
D10*
X135937217Y-117128721D02*
X136080074Y-117176340D01*
X136080074Y-117176340D02*
X136127693Y-117223959D01*
X136127693Y-117223959D02*
X136175312Y-117319197D01*
X136175312Y-117319197D02*
X136175312Y-117462054D01*
X136175312Y-117462054D02*
X136127693Y-117557292D01*
X136127693Y-117557292D02*
X136080074Y-117604912D01*
X136080074Y-117604912D02*
X135984836Y-117652531D01*
X135984836Y-117652531D02*
X135603884Y-117652531D01*
X135603884Y-117652531D02*
X135603884Y-116652531D01*
X135603884Y-116652531D02*
X135937217Y-116652531D01*
X135937217Y-116652531D02*
X136032455Y-116700150D01*
X136032455Y-116700150D02*
X136080074Y-116747769D01*
X136080074Y-116747769D02*
X136127693Y-116843007D01*
X136127693Y-116843007D02*
X136127693Y-116938245D01*
X136127693Y-116938245D02*
X136080074Y-117033483D01*
X136080074Y-117033483D02*
X136032455Y-117081102D01*
X136032455Y-117081102D02*
X135937217Y-117128721D01*
X135937217Y-117128721D02*
X135603884Y-117128721D01*
X136603884Y-117557292D02*
X136651503Y-117604912D01*
X136651503Y-117604912D02*
X136603884Y-117652531D01*
X136603884Y-117652531D02*
X136556265Y-117604912D01*
X136556265Y-117604912D02*
X136603884Y-117557292D01*
X136603884Y-117557292D02*
X136603884Y-117652531D01*
X136984836Y-116652531D02*
X137222931Y-117652531D01*
X137222931Y-117652531D02*
X137413407Y-116938245D01*
X137413407Y-116938245D02*
X137603883Y-117652531D01*
X137603883Y-117652531D02*
X137841979Y-116652531D01*
X138222931Y-117652531D02*
X138222931Y-116985864D01*
X138222931Y-116652531D02*
X138175312Y-116700150D01*
X138175312Y-116700150D02*
X138222931Y-116747769D01*
X138222931Y-116747769D02*
X138270550Y-116700150D01*
X138270550Y-116700150D02*
X138222931Y-116652531D01*
X138222931Y-116652531D02*
X138222931Y-116747769D01*
X138841978Y-117652531D02*
X138746740Y-117604912D01*
X138746740Y-117604912D02*
X138699121Y-117509673D01*
X138699121Y-117509673D02*
X138699121Y-116652531D01*
X139080074Y-116985864D02*
X139461026Y-116985864D01*
X139222931Y-116652531D02*
X139222931Y-117509673D01*
X139222931Y-117509673D02*
X139270550Y-117604912D01*
X139270550Y-117604912D02*
X139365788Y-117652531D01*
X139365788Y-117652531D02*
X139461026Y-117652531D01*
X139746741Y-117604912D02*
X139841979Y-117652531D01*
X139841979Y-117652531D02*
X140032455Y-117652531D01*
X140032455Y-117652531D02*
X140127693Y-117604912D01*
X140127693Y-117604912D02*
X140175312Y-117509673D01*
X140175312Y-117509673D02*
X140175312Y-117462054D01*
X140175312Y-117462054D02*
X140127693Y-117366816D01*
X140127693Y-117366816D02*
X140032455Y-117319197D01*
X140032455Y-117319197D02*
X139889598Y-117319197D01*
X139889598Y-117319197D02*
X139794360Y-117271578D01*
X139794360Y-117271578D02*
X139746741Y-117176340D01*
X139746741Y-117176340D02*
X139746741Y-117128721D01*
X139746741Y-117128721D02*
X139794360Y-117033483D01*
X139794360Y-117033483D02*
X139889598Y-116985864D01*
X139889598Y-116985864D02*
X140032455Y-116985864D01*
X140032455Y-116985864D02*
X140127693Y-117033483D01*
X140603884Y-117652531D02*
X140603884Y-116652531D01*
X141032455Y-117652531D02*
X141032455Y-117128721D01*
X141032455Y-117128721D02*
X140984836Y-117033483D01*
X140984836Y-117033483D02*
X140889598Y-116985864D01*
X140889598Y-116985864D02*
X140746741Y-116985864D01*
X140746741Y-116985864D02*
X140651503Y-117033483D01*
X140651503Y-117033483D02*
X140603884Y-117081102D01*
X141508646Y-117652531D02*
X141508646Y-116985864D01*
X141508646Y-116652531D02*
X141461027Y-116700150D01*
X141461027Y-116700150D02*
X141508646Y-116747769D01*
X141508646Y-116747769D02*
X141556265Y-116700150D01*
X141556265Y-116700150D02*
X141508646Y-116652531D01*
X141508646Y-116652531D02*
X141508646Y-116747769D01*
X141984836Y-117652531D02*
X141984836Y-116985864D01*
X141984836Y-117176340D02*
X142032455Y-117081102D01*
X142032455Y-117081102D02*
X142080074Y-117033483D01*
X142080074Y-117033483D02*
X142175312Y-116985864D01*
X142175312Y-116985864D02*
X142270550Y-116985864D01*
X142984836Y-117604912D02*
X142889598Y-117652531D01*
X142889598Y-117652531D02*
X142699122Y-117652531D01*
X142699122Y-117652531D02*
X142603884Y-117604912D01*
X142603884Y-117604912D02*
X142556265Y-117509673D01*
X142556265Y-117509673D02*
X142556265Y-117128721D01*
X142556265Y-117128721D02*
X142603884Y-117033483D01*
X142603884Y-117033483D02*
X142699122Y-116985864D01*
X142699122Y-116985864D02*
X142889598Y-116985864D01*
X142889598Y-116985864D02*
X142984836Y-117033483D01*
X142984836Y-117033483D02*
X143032455Y-117128721D01*
X143032455Y-117128721D02*
X143032455Y-117223959D01*
X143032455Y-117223959D02*
X142556265Y-117319197D01*
X135603884Y-118738665D02*
X135937217Y-118738665D01*
X136080074Y-119262475D02*
X135603884Y-119262475D01*
X135603884Y-119262475D02*
X135603884Y-118262475D01*
X135603884Y-118262475D02*
X136080074Y-118262475D01*
X136461027Y-119214856D02*
X136603884Y-119262475D01*
X136603884Y-119262475D02*
X136841979Y-119262475D01*
X136841979Y-119262475D02*
X136937217Y-119214856D01*
X136937217Y-119214856D02*
X136984836Y-119167236D01*
X136984836Y-119167236D02*
X137032455Y-119071998D01*
X137032455Y-119071998D02*
X137032455Y-118976760D01*
X137032455Y-118976760D02*
X136984836Y-118881522D01*
X136984836Y-118881522D02*
X136937217Y-118833903D01*
X136937217Y-118833903D02*
X136841979Y-118786284D01*
X136841979Y-118786284D02*
X136651503Y-118738665D01*
X136651503Y-118738665D02*
X136556265Y-118691046D01*
X136556265Y-118691046D02*
X136508646Y-118643427D01*
X136508646Y-118643427D02*
X136461027Y-118548189D01*
X136461027Y-118548189D02*
X136461027Y-118452951D01*
X136461027Y-118452951D02*
X136508646Y-118357713D01*
X136508646Y-118357713D02*
X136556265Y-118310094D01*
X136556265Y-118310094D02*
X136651503Y-118262475D01*
X136651503Y-118262475D02*
X136889598Y-118262475D01*
X136889598Y-118262475D02*
X137032455Y-118310094D01*
X137461027Y-119262475D02*
X137461027Y-118262475D01*
X137461027Y-118262475D02*
X137841979Y-118262475D01*
X137841979Y-118262475D02*
X137937217Y-118310094D01*
X137937217Y-118310094D02*
X137984836Y-118357713D01*
X137984836Y-118357713D02*
X138032455Y-118452951D01*
X138032455Y-118452951D02*
X138032455Y-118595808D01*
X138032455Y-118595808D02*
X137984836Y-118691046D01*
X137984836Y-118691046D02*
X137937217Y-118738665D01*
X137937217Y-118738665D02*
X137841979Y-118786284D01*
X137841979Y-118786284D02*
X137461027Y-118786284D01*
X138365789Y-118262475D02*
X138984836Y-118262475D01*
X138984836Y-118262475D02*
X138651503Y-118643427D01*
X138651503Y-118643427D02*
X138794360Y-118643427D01*
X138794360Y-118643427D02*
X138889598Y-118691046D01*
X138889598Y-118691046D02*
X138937217Y-118738665D01*
X138937217Y-118738665D02*
X138984836Y-118833903D01*
X138984836Y-118833903D02*
X138984836Y-119071998D01*
X138984836Y-119071998D02*
X138937217Y-119167236D01*
X138937217Y-119167236D02*
X138889598Y-119214856D01*
X138889598Y-119214856D02*
X138794360Y-119262475D01*
X138794360Y-119262475D02*
X138508646Y-119262475D01*
X138508646Y-119262475D02*
X138413408Y-119214856D01*
X138413408Y-119214856D02*
X138365789Y-119167236D01*
X139365789Y-118357713D02*
X139413408Y-118310094D01*
X139413408Y-118310094D02*
X139508646Y-118262475D01*
X139508646Y-118262475D02*
X139746741Y-118262475D01*
X139746741Y-118262475D02*
X139841979Y-118310094D01*
X139841979Y-118310094D02*
X139889598Y-118357713D01*
X139889598Y-118357713D02*
X139937217Y-118452951D01*
X139937217Y-118452951D02*
X139937217Y-118548189D01*
X139937217Y-118548189D02*
X139889598Y-118691046D01*
X139889598Y-118691046D02*
X139318170Y-119262475D01*
X139318170Y-119262475D02*
X139937217Y-119262475D01*
X140365789Y-118881522D02*
X141127694Y-118881522D01*
X141508646Y-118262475D02*
X141746741Y-119262475D01*
X141746741Y-119262475D02*
X141937217Y-118548189D01*
X141937217Y-118548189D02*
X142127693Y-119262475D01*
X142127693Y-119262475D02*
X142365789Y-118262475D01*
X143318169Y-119262475D02*
X142984836Y-118786284D01*
X142746741Y-119262475D02*
X142746741Y-118262475D01*
X142746741Y-118262475D02*
X143127693Y-118262475D01*
X143127693Y-118262475D02*
X143222931Y-118310094D01*
X143222931Y-118310094D02*
X143270550Y-118357713D01*
X143270550Y-118357713D02*
X143318169Y-118452951D01*
X143318169Y-118452951D02*
X143318169Y-118595808D01*
X143318169Y-118595808D02*
X143270550Y-118691046D01*
X143270550Y-118691046D02*
X143222931Y-118738665D01*
X143222931Y-118738665D02*
X143127693Y-118786284D01*
X143127693Y-118786284D02*
X142746741Y-118786284D01*
X143937217Y-118262475D02*
X144127693Y-118262475D01*
X144127693Y-118262475D02*
X144222931Y-118310094D01*
X144222931Y-118310094D02*
X144318169Y-118405332D01*
X144318169Y-118405332D02*
X144365788Y-118595808D01*
X144365788Y-118595808D02*
X144365788Y-118929141D01*
X144365788Y-118929141D02*
X144318169Y-119119617D01*
X144318169Y-119119617D02*
X144222931Y-119214856D01*
X144222931Y-119214856D02*
X144127693Y-119262475D01*
X144127693Y-119262475D02*
X143937217Y-119262475D01*
X143937217Y-119262475D02*
X143841979Y-119214856D01*
X143841979Y-119214856D02*
X143746741Y-119119617D01*
X143746741Y-119119617D02*
X143699122Y-118929141D01*
X143699122Y-118929141D02*
X143699122Y-118595808D01*
X143699122Y-118595808D02*
X143746741Y-118405332D01*
X143746741Y-118405332D02*
X143841979Y-118310094D01*
X143841979Y-118310094D02*
X143937217Y-118262475D01*
X144984836Y-118262475D02*
X145175312Y-118262475D01*
X145175312Y-118262475D02*
X145270550Y-118310094D01*
X145270550Y-118310094D02*
X145365788Y-118405332D01*
X145365788Y-118405332D02*
X145413407Y-118595808D01*
X145413407Y-118595808D02*
X145413407Y-118929141D01*
X145413407Y-118929141D02*
X145365788Y-119119617D01*
X145365788Y-119119617D02*
X145270550Y-119214856D01*
X145270550Y-119214856D02*
X145175312Y-119262475D01*
X145175312Y-119262475D02*
X144984836Y-119262475D01*
X144984836Y-119262475D02*
X144889598Y-119214856D01*
X144889598Y-119214856D02*
X144794360Y-119119617D01*
X144794360Y-119119617D02*
X144746741Y-118929141D01*
X144746741Y-118929141D02*
X144746741Y-118595808D01*
X144746741Y-118595808D02*
X144794360Y-118405332D01*
X144794360Y-118405332D02*
X144889598Y-118310094D01*
X144889598Y-118310094D02*
X144984836Y-118262475D01*
X145841979Y-119262475D02*
X145841979Y-118262475D01*
X145841979Y-118262475D02*
X146175312Y-118976760D01*
X146175312Y-118976760D02*
X146508645Y-118262475D01*
X146508645Y-118262475D02*
X146508645Y-119262475D01*
X146984836Y-118881522D02*
X147746741Y-118881522D01*
X148127693Y-118262475D02*
X148746740Y-118262475D01*
X148746740Y-118262475D02*
X148413407Y-118643427D01*
X148413407Y-118643427D02*
X148556264Y-118643427D01*
X148556264Y-118643427D02*
X148651502Y-118691046D01*
X148651502Y-118691046D02*
X148699121Y-118738665D01*
X148699121Y-118738665D02*
X148746740Y-118833903D01*
X148746740Y-118833903D02*
X148746740Y-119071998D01*
X148746740Y-119071998D02*
X148699121Y-119167236D01*
X148699121Y-119167236D02*
X148651502Y-119214856D01*
X148651502Y-119214856D02*
X148556264Y-119262475D01*
X148556264Y-119262475D02*
X148270550Y-119262475D01*
X148270550Y-119262475D02*
X148175312Y-119214856D01*
X148175312Y-119214856D02*
X148127693Y-119167236D01*
X149127693Y-118357713D02*
X149175312Y-118310094D01*
X149175312Y-118310094D02*
X149270550Y-118262475D01*
X149270550Y-118262475D02*
X149508645Y-118262475D01*
X149508645Y-118262475D02*
X149603883Y-118310094D01*
X149603883Y-118310094D02*
X149651502Y-118357713D01*
X149651502Y-118357713D02*
X149699121Y-118452951D01*
X149699121Y-118452951D02*
X149699121Y-118548189D01*
X149699121Y-118548189D02*
X149651502Y-118691046D01*
X149651502Y-118691046D02*
X149080074Y-119262475D01*
X149080074Y-119262475D02*
X149699121Y-119262475D01*
X150127693Y-119262475D02*
X150127693Y-118262475D01*
X150127693Y-118262475D02*
X150365788Y-118262475D01*
X150365788Y-118262475D02*
X150508645Y-118310094D01*
X150508645Y-118310094D02*
X150603883Y-118405332D01*
X150603883Y-118405332D02*
X150651502Y-118500570D01*
X150651502Y-118500570D02*
X150699121Y-118691046D01*
X150699121Y-118691046D02*
X150699121Y-118833903D01*
X150699121Y-118833903D02*
X150651502Y-119024379D01*
X150651502Y-119024379D02*
X150603883Y-119119617D01*
X150603883Y-119119617D02*
X150508645Y-119214856D01*
X150508645Y-119214856D02*
X150365788Y-119262475D01*
X150365788Y-119262475D02*
X150127693Y-119262475D01*
X151127693Y-118881522D02*
X151889598Y-118881522D01*
X152365788Y-119262475D02*
X152365788Y-118262475D01*
X152365788Y-118262475D02*
X152603883Y-118262475D01*
X152603883Y-118262475D02*
X152746740Y-118310094D01*
X152746740Y-118310094D02*
X152841978Y-118405332D01*
X152841978Y-118405332D02*
X152889597Y-118500570D01*
X152889597Y-118500570D02*
X152937216Y-118691046D01*
X152937216Y-118691046D02*
X152937216Y-118833903D01*
X152937216Y-118833903D02*
X152889597Y-119024379D01*
X152889597Y-119024379D02*
X152841978Y-119119617D01*
X152841978Y-119119617D02*
X152746740Y-119214856D01*
X152746740Y-119214856D02*
X152603883Y-119262475D01*
X152603883Y-119262475D02*
X152365788Y-119262475D01*
X153746740Y-119214856D02*
X153651502Y-119262475D01*
X153651502Y-119262475D02*
X153461026Y-119262475D01*
X153461026Y-119262475D02*
X153365788Y-119214856D01*
X153365788Y-119214856D02*
X153318169Y-119119617D01*
X153318169Y-119119617D02*
X153318169Y-118738665D01*
X153318169Y-118738665D02*
X153365788Y-118643427D01*
X153365788Y-118643427D02*
X153461026Y-118595808D01*
X153461026Y-118595808D02*
X153651502Y-118595808D01*
X153651502Y-118595808D02*
X153746740Y-118643427D01*
X153746740Y-118643427D02*
X153794359Y-118738665D01*
X153794359Y-118738665D02*
X153794359Y-118833903D01*
X153794359Y-118833903D02*
X153318169Y-118929141D01*
X154127693Y-118595808D02*
X154365788Y-119262475D01*
X154365788Y-119262475D02*
X154603883Y-118595808D01*
X154984836Y-119262475D02*
X154984836Y-118262475D01*
X155080074Y-118881522D02*
X155365788Y-119262475D01*
X155365788Y-118595808D02*
X154984836Y-118976760D01*
X155794360Y-119262475D02*
X155794360Y-118595808D01*
X155794360Y-118262475D02*
X155746741Y-118310094D01*
X155746741Y-118310094D02*
X155794360Y-118357713D01*
X155794360Y-118357713D02*
X155841979Y-118310094D01*
X155841979Y-118310094D02*
X155794360Y-118262475D01*
X155794360Y-118262475D02*
X155794360Y-118357713D01*
X156127693Y-118595808D02*
X156508645Y-118595808D01*
X156270550Y-118262475D02*
X156270550Y-119119617D01*
X156270550Y-119119617D02*
X156318169Y-119214856D01*
X156318169Y-119214856D02*
X156413407Y-119262475D01*
X156413407Y-119262475D02*
X156508645Y-119262475D01*
X157937217Y-118738665D02*
X158080074Y-118786284D01*
X158080074Y-118786284D02*
X158127693Y-118833903D01*
X158127693Y-118833903D02*
X158175312Y-118929141D01*
X158175312Y-118929141D02*
X158175312Y-119071998D01*
X158175312Y-119071998D02*
X158127693Y-119167236D01*
X158127693Y-119167236D02*
X158080074Y-119214856D01*
X158080074Y-119214856D02*
X157984836Y-119262475D01*
X157984836Y-119262475D02*
X157603884Y-119262475D01*
X157603884Y-119262475D02*
X157603884Y-118262475D01*
X157603884Y-118262475D02*
X157937217Y-118262475D01*
X157937217Y-118262475D02*
X158032455Y-118310094D01*
X158032455Y-118310094D02*
X158080074Y-118357713D01*
X158080074Y-118357713D02*
X158127693Y-118452951D01*
X158127693Y-118452951D02*
X158127693Y-118548189D01*
X158127693Y-118548189D02*
X158080074Y-118643427D01*
X158080074Y-118643427D02*
X158032455Y-118691046D01*
X158032455Y-118691046D02*
X157937217Y-118738665D01*
X157937217Y-118738665D02*
X157603884Y-118738665D01*
X158603884Y-119262475D02*
X158603884Y-118595808D01*
X158603884Y-118786284D02*
X158651503Y-118691046D01*
X158651503Y-118691046D02*
X158699122Y-118643427D01*
X158699122Y-118643427D02*
X158794360Y-118595808D01*
X158794360Y-118595808D02*
X158889598Y-118595808D01*
X159603884Y-119214856D02*
X159508646Y-119262475D01*
X159508646Y-119262475D02*
X159318170Y-119262475D01*
X159318170Y-119262475D02*
X159222932Y-119214856D01*
X159222932Y-119214856D02*
X159175313Y-119119617D01*
X159175313Y-119119617D02*
X159175313Y-118738665D01*
X159175313Y-118738665D02*
X159222932Y-118643427D01*
X159222932Y-118643427D02*
X159318170Y-118595808D01*
X159318170Y-118595808D02*
X159508646Y-118595808D01*
X159508646Y-118595808D02*
X159603884Y-118643427D01*
X159603884Y-118643427D02*
X159651503Y-118738665D01*
X159651503Y-118738665D02*
X159651503Y-118833903D01*
X159651503Y-118833903D02*
X159175313Y-118929141D01*
X160508646Y-119262475D02*
X160508646Y-118738665D01*
X160508646Y-118738665D02*
X160461027Y-118643427D01*
X160461027Y-118643427D02*
X160365789Y-118595808D01*
X160365789Y-118595808D02*
X160175313Y-118595808D01*
X160175313Y-118595808D02*
X160080075Y-118643427D01*
X160508646Y-119214856D02*
X160413408Y-119262475D01*
X160413408Y-119262475D02*
X160175313Y-119262475D01*
X160175313Y-119262475D02*
X160080075Y-119214856D01*
X160080075Y-119214856D02*
X160032456Y-119119617D01*
X160032456Y-119119617D02*
X160032456Y-119024379D01*
X160032456Y-119024379D02*
X160080075Y-118929141D01*
X160080075Y-118929141D02*
X160175313Y-118881522D01*
X160175313Y-118881522D02*
X160413408Y-118881522D01*
X160413408Y-118881522D02*
X160508646Y-118833903D01*
X160984837Y-119262475D02*
X160984837Y-118262475D01*
X161080075Y-118881522D02*
X161365789Y-119262475D01*
X161365789Y-118595808D02*
X160984837Y-118976760D01*
X161937218Y-119262475D02*
X161841980Y-119214856D01*
X161841980Y-119214856D02*
X161794361Y-119167236D01*
X161794361Y-119167236D02*
X161746742Y-119071998D01*
X161746742Y-119071998D02*
X161746742Y-118786284D01*
X161746742Y-118786284D02*
X161794361Y-118691046D01*
X161794361Y-118691046D02*
X161841980Y-118643427D01*
X161841980Y-118643427D02*
X161937218Y-118595808D01*
X161937218Y-118595808D02*
X162080075Y-118595808D01*
X162080075Y-118595808D02*
X162175313Y-118643427D01*
X162175313Y-118643427D02*
X162222932Y-118691046D01*
X162222932Y-118691046D02*
X162270551Y-118786284D01*
X162270551Y-118786284D02*
X162270551Y-119071998D01*
X162270551Y-119071998D02*
X162222932Y-119167236D01*
X162222932Y-119167236D02*
X162175313Y-119214856D01*
X162175313Y-119214856D02*
X162080075Y-119262475D01*
X162080075Y-119262475D02*
X161937218Y-119262475D01*
X163127694Y-118595808D02*
X163127694Y-119262475D01*
X162699123Y-118595808D02*
X162699123Y-119119617D01*
X162699123Y-119119617D02*
X162746742Y-119214856D01*
X162746742Y-119214856D02*
X162841980Y-119262475D01*
X162841980Y-119262475D02*
X162984837Y-119262475D01*
X162984837Y-119262475D02*
X163080075Y-119214856D01*
X163080075Y-119214856D02*
X163127694Y-119167236D01*
X163461028Y-118595808D02*
X163841980Y-118595808D01*
X163603885Y-118262475D02*
X163603885Y-119119617D01*
X163603885Y-119119617D02*
X163651504Y-119214856D01*
X163651504Y-119214856D02*
X163746742Y-119262475D01*
X163746742Y-119262475D02*
X163841980Y-119262475D01*
X165270552Y-118738665D02*
X165413409Y-118786284D01*
X165413409Y-118786284D02*
X165461028Y-118833903D01*
X165461028Y-118833903D02*
X165508647Y-118929141D01*
X165508647Y-118929141D02*
X165508647Y-119071998D01*
X165508647Y-119071998D02*
X165461028Y-119167236D01*
X165461028Y-119167236D02*
X165413409Y-119214856D01*
X165413409Y-119214856D02*
X165318171Y-119262475D01*
X165318171Y-119262475D02*
X164937219Y-119262475D01*
X164937219Y-119262475D02*
X164937219Y-118262475D01*
X164937219Y-118262475D02*
X165270552Y-118262475D01*
X165270552Y-118262475D02*
X165365790Y-118310094D01*
X165365790Y-118310094D02*
X165413409Y-118357713D01*
X165413409Y-118357713D02*
X165461028Y-118452951D01*
X165461028Y-118452951D02*
X165461028Y-118548189D01*
X165461028Y-118548189D02*
X165413409Y-118643427D01*
X165413409Y-118643427D02*
X165365790Y-118691046D01*
X165365790Y-118691046D02*
X165270552Y-118738665D01*
X165270552Y-118738665D02*
X164937219Y-118738665D01*
X166080076Y-119262475D02*
X165984838Y-119214856D01*
X165984838Y-119214856D02*
X165937219Y-119167236D01*
X165937219Y-119167236D02*
X165889600Y-119071998D01*
X165889600Y-119071998D02*
X165889600Y-118786284D01*
X165889600Y-118786284D02*
X165937219Y-118691046D01*
X165937219Y-118691046D02*
X165984838Y-118643427D01*
X165984838Y-118643427D02*
X166080076Y-118595808D01*
X166080076Y-118595808D02*
X166222933Y-118595808D01*
X166222933Y-118595808D02*
X166318171Y-118643427D01*
X166318171Y-118643427D02*
X166365790Y-118691046D01*
X166365790Y-118691046D02*
X166413409Y-118786284D01*
X166413409Y-118786284D02*
X166413409Y-119071998D01*
X166413409Y-119071998D02*
X166365790Y-119167236D01*
X166365790Y-119167236D02*
X166318171Y-119214856D01*
X166318171Y-119214856D02*
X166222933Y-119262475D01*
X166222933Y-119262475D02*
X166080076Y-119262475D01*
X167270552Y-119262475D02*
X167270552Y-118738665D01*
X167270552Y-118738665D02*
X167222933Y-118643427D01*
X167222933Y-118643427D02*
X167127695Y-118595808D01*
X167127695Y-118595808D02*
X166937219Y-118595808D01*
X166937219Y-118595808D02*
X166841981Y-118643427D01*
X167270552Y-119214856D02*
X167175314Y-119262475D01*
X167175314Y-119262475D02*
X166937219Y-119262475D01*
X166937219Y-119262475D02*
X166841981Y-119214856D01*
X166841981Y-119214856D02*
X166794362Y-119119617D01*
X166794362Y-119119617D02*
X166794362Y-119024379D01*
X166794362Y-119024379D02*
X166841981Y-118929141D01*
X166841981Y-118929141D02*
X166937219Y-118881522D01*
X166937219Y-118881522D02*
X167175314Y-118881522D01*
X167175314Y-118881522D02*
X167270552Y-118833903D01*
X167746743Y-119262475D02*
X167746743Y-118595808D01*
X167746743Y-118786284D02*
X167794362Y-118691046D01*
X167794362Y-118691046D02*
X167841981Y-118643427D01*
X167841981Y-118643427D02*
X167937219Y-118595808D01*
X167937219Y-118595808D02*
X168032457Y-118595808D01*
X168794362Y-119262475D02*
X168794362Y-118262475D01*
X168794362Y-119214856D02*
X168699124Y-119262475D01*
X168699124Y-119262475D02*
X168508648Y-119262475D01*
X168508648Y-119262475D02*
X168413410Y-119214856D01*
X168413410Y-119214856D02*
X168365791Y-119167236D01*
X168365791Y-119167236D02*
X168318172Y-119071998D01*
X168318172Y-119071998D02*
X168318172Y-118786284D01*
X168318172Y-118786284D02*
X168365791Y-118691046D01*
X168365791Y-118691046D02*
X168413410Y-118643427D01*
X168413410Y-118643427D02*
X168508648Y-118595808D01*
X168508648Y-118595808D02*
X168699124Y-118595808D01*
X168699124Y-118595808D02*
X168794362Y-118643427D01*
X135794360Y-119872419D02*
X135889598Y-119872419D01*
X135889598Y-119872419D02*
X135984836Y-119920038D01*
X135984836Y-119920038D02*
X136032455Y-119967657D01*
X136032455Y-119967657D02*
X136080074Y-120062895D01*
X136080074Y-120062895D02*
X136127693Y-120253371D01*
X136127693Y-120253371D02*
X136127693Y-120491466D01*
X136127693Y-120491466D02*
X136080074Y-120681942D01*
X136080074Y-120681942D02*
X136032455Y-120777180D01*
X136032455Y-120777180D02*
X135984836Y-120824800D01*
X135984836Y-120824800D02*
X135889598Y-120872419D01*
X135889598Y-120872419D02*
X135794360Y-120872419D01*
X135794360Y-120872419D02*
X135699122Y-120824800D01*
X135699122Y-120824800D02*
X135651503Y-120777180D01*
X135651503Y-120777180D02*
X135603884Y-120681942D01*
X135603884Y-120681942D02*
X135556265Y-120491466D01*
X135556265Y-120491466D02*
X135556265Y-120253371D01*
X135556265Y-120253371D02*
X135603884Y-120062895D01*
X135603884Y-120062895D02*
X135651503Y-119967657D01*
X135651503Y-119967657D02*
X135699122Y-119920038D01*
X135699122Y-119920038D02*
X135794360Y-119872419D01*
X137032455Y-119872419D02*
X136556265Y-119872419D01*
X136556265Y-119872419D02*
X136508646Y-120348609D01*
X136508646Y-120348609D02*
X136556265Y-120300990D01*
X136556265Y-120300990D02*
X136651503Y-120253371D01*
X136651503Y-120253371D02*
X136889598Y-120253371D01*
X136889598Y-120253371D02*
X136984836Y-120300990D01*
X136984836Y-120300990D02*
X137032455Y-120348609D01*
X137032455Y-120348609D02*
X137080074Y-120443847D01*
X137080074Y-120443847D02*
X137080074Y-120681942D01*
X137080074Y-120681942D02*
X137032455Y-120777180D01*
X137032455Y-120777180D02*
X136984836Y-120824800D01*
X136984836Y-120824800D02*
X136889598Y-120872419D01*
X136889598Y-120872419D02*
X136651503Y-120872419D01*
X136651503Y-120872419D02*
X136556265Y-120824800D01*
X136556265Y-120824800D02*
X136508646Y-120777180D01*
X138222931Y-119824800D02*
X137365789Y-121110514D01*
X138746741Y-119872419D02*
X138841979Y-119872419D01*
X138841979Y-119872419D02*
X138937217Y-119920038D01*
X138937217Y-119920038D02*
X138984836Y-119967657D01*
X138984836Y-119967657D02*
X139032455Y-120062895D01*
X139032455Y-120062895D02*
X139080074Y-120253371D01*
X139080074Y-120253371D02*
X139080074Y-120491466D01*
X139080074Y-120491466D02*
X139032455Y-120681942D01*
X139032455Y-120681942D02*
X138984836Y-120777180D01*
X138984836Y-120777180D02*
X138937217Y-120824800D01*
X138937217Y-120824800D02*
X138841979Y-120872419D01*
X138841979Y-120872419D02*
X138746741Y-120872419D01*
X138746741Y-120872419D02*
X138651503Y-120824800D01*
X138651503Y-120824800D02*
X138603884Y-120777180D01*
X138603884Y-120777180D02*
X138556265Y-120681942D01*
X138556265Y-120681942D02*
X138508646Y-120491466D01*
X138508646Y-120491466D02*
X138508646Y-120253371D01*
X138508646Y-120253371D02*
X138556265Y-120062895D01*
X138556265Y-120062895D02*
X138603884Y-119967657D01*
X138603884Y-119967657D02*
X138651503Y-119920038D01*
X138651503Y-119920038D02*
X138746741Y-119872419D01*
X139937217Y-120205752D02*
X139937217Y-120872419D01*
X139699122Y-119824800D02*
X139461027Y-120539085D01*
X139461027Y-120539085D02*
X140080074Y-120539085D01*
X141175312Y-119824800D02*
X140318170Y-121110514D01*
X141461027Y-119967657D02*
X141508646Y-119920038D01*
X141508646Y-119920038D02*
X141603884Y-119872419D01*
X141603884Y-119872419D02*
X141841979Y-119872419D01*
X141841979Y-119872419D02*
X141937217Y-119920038D01*
X141937217Y-119920038D02*
X141984836Y-119967657D01*
X141984836Y-119967657D02*
X142032455Y-120062895D01*
X142032455Y-120062895D02*
X142032455Y-120158133D01*
X142032455Y-120158133D02*
X141984836Y-120300990D01*
X141984836Y-120300990D02*
X141413408Y-120872419D01*
X141413408Y-120872419D02*
X142032455Y-120872419D01*
X142937217Y-119872419D02*
X142461027Y-119872419D01*
X142461027Y-119872419D02*
X142413408Y-120348609D01*
X142413408Y-120348609D02*
X142461027Y-120300990D01*
X142461027Y-120300990D02*
X142556265Y-120253371D01*
X142556265Y-120253371D02*
X142794360Y-120253371D01*
X142794360Y-120253371D02*
X142889598Y-120300990D01*
X142889598Y-120300990D02*
X142937217Y-120348609D01*
X142937217Y-120348609D02*
X142984836Y-120443847D01*
X142984836Y-120443847D02*
X142984836Y-120681942D01*
X142984836Y-120681942D02*
X142937217Y-120777180D01*
X142937217Y-120777180D02*
X142889598Y-120824800D01*
X142889598Y-120824800D02*
X142794360Y-120872419D01*
X142794360Y-120872419D02*
X142556265Y-120872419D01*
X142556265Y-120872419D02*
X142461027Y-120824800D01*
X142461027Y-120824800D02*
X142413408Y-120777180D01*
D11*
X127435714Y-83354819D02*
X127435714Y-82354819D01*
X127435714Y-82354819D02*
X127673809Y-82354819D01*
X127673809Y-82354819D02*
X127816666Y-82402438D01*
X127816666Y-82402438D02*
X127911904Y-82497676D01*
X127911904Y-82497676D02*
X127959523Y-82592914D01*
X127959523Y-82592914D02*
X128007142Y-82783390D01*
X128007142Y-82783390D02*
X128007142Y-82926247D01*
X128007142Y-82926247D02*
X127959523Y-83116723D01*
X127959523Y-83116723D02*
X127911904Y-83211961D01*
X127911904Y-83211961D02*
X127816666Y-83307200D01*
X127816666Y-83307200D02*
X127673809Y-83354819D01*
X127673809Y-83354819D02*
X127435714Y-83354819D01*
X128959523Y-83354819D02*
X128388095Y-83354819D01*
X128673809Y-83354819D02*
X128673809Y-82354819D01*
X128673809Y-82354819D02*
X128578571Y-82497676D01*
X128578571Y-82497676D02*
X128483333Y-82592914D01*
X128483333Y-82592914D02*
X128388095Y-82640533D01*
X129864285Y-82354819D02*
X129388095Y-82354819D01*
X129388095Y-82354819D02*
X129340476Y-82831009D01*
X129340476Y-82831009D02*
X129388095Y-82783390D01*
X129388095Y-82783390D02*
X129483333Y-82735771D01*
X129483333Y-82735771D02*
X129721428Y-82735771D01*
X129721428Y-82735771D02*
X129816666Y-82783390D01*
X129816666Y-82783390D02*
X129864285Y-82831009D01*
X129864285Y-82831009D02*
X129911904Y-82926247D01*
X129911904Y-82926247D02*
X129911904Y-83164342D01*
X129911904Y-83164342D02*
X129864285Y-83259580D01*
X129864285Y-83259580D02*
X129816666Y-83307200D01*
X129816666Y-83307200D02*
X129721428Y-83354819D01*
X129721428Y-83354819D02*
X129483333Y-83354819D01*
X129483333Y-83354819D02*
X129388095Y-83307200D01*
X129388095Y-83307200D02*
X129340476Y-83259580D01*
X169345714Y-85894819D02*
X169345714Y-84894819D01*
X169345714Y-84894819D02*
X169583809Y-84894819D01*
X169583809Y-84894819D02*
X169726666Y-84942438D01*
X169726666Y-84942438D02*
X169821904Y-85037676D01*
X169821904Y-85037676D02*
X169869523Y-85132914D01*
X169869523Y-85132914D02*
X169917142Y-85323390D01*
X169917142Y-85323390D02*
X169917142Y-85466247D01*
X169917142Y-85466247D02*
X169869523Y-85656723D01*
X169869523Y-85656723D02*
X169821904Y-85751961D01*
X169821904Y-85751961D02*
X169726666Y-85847200D01*
X169726666Y-85847200D02*
X169583809Y-85894819D01*
X169583809Y-85894819D02*
X169345714Y-85894819D01*
X170869523Y-85894819D02*
X170298095Y-85894819D01*
X170583809Y-85894819D02*
X170583809Y-84894819D01*
X170583809Y-84894819D02*
X170488571Y-85037676D01*
X170488571Y-85037676D02*
X170393333Y-85132914D01*
X170393333Y-85132914D02*
X170298095Y-85180533D01*
X171250476Y-84990057D02*
X171298095Y-84942438D01*
X171298095Y-84942438D02*
X171393333Y-84894819D01*
X171393333Y-84894819D02*
X171631428Y-84894819D01*
X171631428Y-84894819D02*
X171726666Y-84942438D01*
X171726666Y-84942438D02*
X171774285Y-84990057D01*
X171774285Y-84990057D02*
X171821904Y-85085295D01*
X171821904Y-85085295D02*
X171821904Y-85180533D01*
X171821904Y-85180533D02*
X171774285Y-85323390D01*
X171774285Y-85323390D02*
X171202857Y-85894819D01*
X171202857Y-85894819D02*
X171821904Y-85894819D01*
X169345714Y-88434819D02*
X169345714Y-87434819D01*
X169345714Y-87434819D02*
X169583809Y-87434819D01*
X169583809Y-87434819D02*
X169726666Y-87482438D01*
X169726666Y-87482438D02*
X169821904Y-87577676D01*
X169821904Y-87577676D02*
X169869523Y-87672914D01*
X169869523Y-87672914D02*
X169917142Y-87863390D01*
X169917142Y-87863390D02*
X169917142Y-88006247D01*
X169917142Y-88006247D02*
X169869523Y-88196723D01*
X169869523Y-88196723D02*
X169821904Y-88291961D01*
X169821904Y-88291961D02*
X169726666Y-88387200D01*
X169726666Y-88387200D02*
X169583809Y-88434819D01*
X169583809Y-88434819D02*
X169345714Y-88434819D01*
X170869523Y-88434819D02*
X170298095Y-88434819D01*
X170583809Y-88434819D02*
X170583809Y-87434819D01*
X170583809Y-87434819D02*
X170488571Y-87577676D01*
X170488571Y-87577676D02*
X170393333Y-87672914D01*
X170393333Y-87672914D02*
X170298095Y-87720533D01*
X171726666Y-87768152D02*
X171726666Y-88434819D01*
X171488571Y-87387200D02*
X171250476Y-88101485D01*
X171250476Y-88101485D02*
X171869523Y-88101485D01*
X127435714Y-103674819D02*
X127435714Y-102674819D01*
X127435714Y-102674819D02*
X127673809Y-102674819D01*
X127673809Y-102674819D02*
X127816666Y-102722438D01*
X127816666Y-102722438D02*
X127911904Y-102817676D01*
X127911904Y-102817676D02*
X127959523Y-102912914D01*
X127959523Y-102912914D02*
X128007142Y-103103390D01*
X128007142Y-103103390D02*
X128007142Y-103246247D01*
X128007142Y-103246247D02*
X127959523Y-103436723D01*
X127959523Y-103436723D02*
X127911904Y-103531961D01*
X127911904Y-103531961D02*
X127816666Y-103627200D01*
X127816666Y-103627200D02*
X127673809Y-103674819D01*
X127673809Y-103674819D02*
X127435714Y-103674819D01*
X128388095Y-102770057D02*
X128435714Y-102722438D01*
X128435714Y-102722438D02*
X128530952Y-102674819D01*
X128530952Y-102674819D02*
X128769047Y-102674819D01*
X128769047Y-102674819D02*
X128864285Y-102722438D01*
X128864285Y-102722438D02*
X128911904Y-102770057D01*
X128911904Y-102770057D02*
X128959523Y-102865295D01*
X128959523Y-102865295D02*
X128959523Y-102960533D01*
X128959523Y-102960533D02*
X128911904Y-103103390D01*
X128911904Y-103103390D02*
X128340476Y-103674819D01*
X128340476Y-103674819D02*
X128959523Y-103674819D01*
X129911904Y-103674819D02*
X129340476Y-103674819D01*
X129626190Y-103674819D02*
X129626190Y-102674819D01*
X129626190Y-102674819D02*
X129530952Y-102817676D01*
X129530952Y-102817676D02*
X129435714Y-102912914D01*
X129435714Y-102912914D02*
X129340476Y-102960533D01*
X169798095Y-79862438D02*
X169702857Y-79814819D01*
X169702857Y-79814819D02*
X169560000Y-79814819D01*
X169560000Y-79814819D02*
X169417143Y-79862438D01*
X169417143Y-79862438D02*
X169321905Y-79957676D01*
X169321905Y-79957676D02*
X169274286Y-80052914D01*
X169274286Y-80052914D02*
X169226667Y-80243390D01*
X169226667Y-80243390D02*
X169226667Y-80386247D01*
X169226667Y-80386247D02*
X169274286Y-80576723D01*
X169274286Y-80576723D02*
X169321905Y-80671961D01*
X169321905Y-80671961D02*
X169417143Y-80767200D01*
X169417143Y-80767200D02*
X169560000Y-80814819D01*
X169560000Y-80814819D02*
X169655238Y-80814819D01*
X169655238Y-80814819D02*
X169798095Y-80767200D01*
X169798095Y-80767200D02*
X169845714Y-80719580D01*
X169845714Y-80719580D02*
X169845714Y-80386247D01*
X169845714Y-80386247D02*
X169655238Y-80386247D01*
X170274286Y-80814819D02*
X170274286Y-79814819D01*
X170274286Y-79814819D02*
X170845714Y-80814819D01*
X170845714Y-80814819D02*
X170845714Y-79814819D01*
X171321905Y-80814819D02*
X171321905Y-79814819D01*
X171321905Y-79814819D02*
X171560000Y-79814819D01*
X171560000Y-79814819D02*
X171702857Y-79862438D01*
X171702857Y-79862438D02*
X171798095Y-79957676D01*
X171798095Y-79957676D02*
X171845714Y-80052914D01*
X171845714Y-80052914D02*
X171893333Y-80243390D01*
X171893333Y-80243390D02*
X171893333Y-80386247D01*
X171893333Y-80386247D02*
X171845714Y-80576723D01*
X171845714Y-80576723D02*
X171798095Y-80671961D01*
X171798095Y-80671961D02*
X171702857Y-80767200D01*
X171702857Y-80767200D02*
X171560000Y-80814819D01*
X171560000Y-80814819D02*
X171321905Y-80814819D01*
X176941905Y-97594819D02*
X177560952Y-97594819D01*
X177560952Y-97594819D02*
X177227619Y-97975771D01*
X177227619Y-97975771D02*
X177370476Y-97975771D01*
X177370476Y-97975771D02*
X177465714Y-98023390D01*
X177465714Y-98023390D02*
X177513333Y-98071009D01*
X177513333Y-98071009D02*
X177560952Y-98166247D01*
X177560952Y-98166247D02*
X177560952Y-98404342D01*
X177560952Y-98404342D02*
X177513333Y-98499580D01*
X177513333Y-98499580D02*
X177465714Y-98547200D01*
X177465714Y-98547200D02*
X177370476Y-98594819D01*
X177370476Y-98594819D02*
X177084762Y-98594819D01*
X177084762Y-98594819D02*
X176989524Y-98547200D01*
X176989524Y-98547200D02*
X176941905Y-98499580D01*
X177846667Y-97594819D02*
X178180000Y-98594819D01*
X178180000Y-98594819D02*
X178513333Y-97594819D01*
X178751429Y-97594819D02*
X179370476Y-97594819D01*
X179370476Y-97594819D02*
X179037143Y-97975771D01*
X179037143Y-97975771D02*
X179180000Y-97975771D01*
X179180000Y-97975771D02*
X179275238Y-98023390D01*
X179275238Y-98023390D02*
X179322857Y-98071009D01*
X179322857Y-98071009D02*
X179370476Y-98166247D01*
X179370476Y-98166247D02*
X179370476Y-98404342D01*
X179370476Y-98404342D02*
X179322857Y-98499580D01*
X179322857Y-98499580D02*
X179275238Y-98547200D01*
X179275238Y-98547200D02*
X179180000Y-98594819D01*
X179180000Y-98594819D02*
X178894286Y-98594819D01*
X178894286Y-98594819D02*
X178799048Y-98547200D01*
X178799048Y-98547200D02*
X178751429Y-98499580D01*
X127911905Y-85894819D02*
X127911905Y-84894819D01*
X127911905Y-84894819D02*
X128150000Y-84894819D01*
X128150000Y-84894819D02*
X128292857Y-84942438D01*
X128292857Y-84942438D02*
X128388095Y-85037676D01*
X128388095Y-85037676D02*
X128435714Y-85132914D01*
X128435714Y-85132914D02*
X128483333Y-85323390D01*
X128483333Y-85323390D02*
X128483333Y-85466247D01*
X128483333Y-85466247D02*
X128435714Y-85656723D01*
X128435714Y-85656723D02*
X128388095Y-85751961D01*
X128388095Y-85751961D02*
X128292857Y-85847200D01*
X128292857Y-85847200D02*
X128150000Y-85894819D01*
X128150000Y-85894819D02*
X127911905Y-85894819D01*
X128864286Y-84990057D02*
X128911905Y-84942438D01*
X128911905Y-84942438D02*
X129007143Y-84894819D01*
X129007143Y-84894819D02*
X129245238Y-84894819D01*
X129245238Y-84894819D02*
X129340476Y-84942438D01*
X129340476Y-84942438D02*
X129388095Y-84990057D01*
X129388095Y-84990057D02*
X129435714Y-85085295D01*
X129435714Y-85085295D02*
X129435714Y-85180533D01*
X129435714Y-85180533D02*
X129388095Y-85323390D01*
X129388095Y-85323390D02*
X128816667Y-85894819D01*
X128816667Y-85894819D02*
X129435714Y-85894819D01*
X169345714Y-83354819D02*
X169345714Y-82354819D01*
X169345714Y-82354819D02*
X169583809Y-82354819D01*
X169583809Y-82354819D02*
X169726666Y-82402438D01*
X169726666Y-82402438D02*
X169821904Y-82497676D01*
X169821904Y-82497676D02*
X169869523Y-82592914D01*
X169869523Y-82592914D02*
X169917142Y-82783390D01*
X169917142Y-82783390D02*
X169917142Y-82926247D01*
X169917142Y-82926247D02*
X169869523Y-83116723D01*
X169869523Y-83116723D02*
X169821904Y-83211961D01*
X169821904Y-83211961D02*
X169726666Y-83307200D01*
X169726666Y-83307200D02*
X169583809Y-83354819D01*
X169583809Y-83354819D02*
X169345714Y-83354819D01*
X170869523Y-83354819D02*
X170298095Y-83354819D01*
X170583809Y-83354819D02*
X170583809Y-82354819D01*
X170583809Y-82354819D02*
X170488571Y-82497676D01*
X170488571Y-82497676D02*
X170393333Y-82592914D01*
X170393333Y-82592914D02*
X170298095Y-82640533D01*
X171202857Y-82354819D02*
X171821904Y-82354819D01*
X171821904Y-82354819D02*
X171488571Y-82735771D01*
X171488571Y-82735771D02*
X171631428Y-82735771D01*
X171631428Y-82735771D02*
X171726666Y-82783390D01*
X171726666Y-82783390D02*
X171774285Y-82831009D01*
X171774285Y-82831009D02*
X171821904Y-82926247D01*
X171821904Y-82926247D02*
X171821904Y-83164342D01*
X171821904Y-83164342D02*
X171774285Y-83259580D01*
X171774285Y-83259580D02*
X171726666Y-83307200D01*
X171726666Y-83307200D02*
X171631428Y-83354819D01*
X171631428Y-83354819D02*
X171345714Y-83354819D01*
X171345714Y-83354819D02*
X171250476Y-83307200D01*
X171250476Y-83307200D02*
X171202857Y-83259580D01*
X127911905Y-96054819D02*
X127911905Y-95054819D01*
X127911905Y-95054819D02*
X128150000Y-95054819D01*
X128150000Y-95054819D02*
X128292857Y-95102438D01*
X128292857Y-95102438D02*
X128388095Y-95197676D01*
X128388095Y-95197676D02*
X128435714Y-95292914D01*
X128435714Y-95292914D02*
X128483333Y-95483390D01*
X128483333Y-95483390D02*
X128483333Y-95626247D01*
X128483333Y-95626247D02*
X128435714Y-95816723D01*
X128435714Y-95816723D02*
X128388095Y-95911961D01*
X128388095Y-95911961D02*
X128292857Y-96007200D01*
X128292857Y-96007200D02*
X128150000Y-96054819D01*
X128150000Y-96054819D02*
X127911905Y-96054819D01*
X129388095Y-95054819D02*
X128911905Y-95054819D01*
X128911905Y-95054819D02*
X128864286Y-95531009D01*
X128864286Y-95531009D02*
X128911905Y-95483390D01*
X128911905Y-95483390D02*
X129007143Y-95435771D01*
X129007143Y-95435771D02*
X129245238Y-95435771D01*
X129245238Y-95435771D02*
X129340476Y-95483390D01*
X129340476Y-95483390D02*
X129388095Y-95531009D01*
X129388095Y-95531009D02*
X129435714Y-95626247D01*
X129435714Y-95626247D02*
X129435714Y-95864342D01*
X129435714Y-95864342D02*
X129388095Y-95959580D01*
X129388095Y-95959580D02*
X129340476Y-96007200D01*
X129340476Y-96007200D02*
X129245238Y-96054819D01*
X129245238Y-96054819D02*
X129007143Y-96054819D01*
X129007143Y-96054819D02*
X128911905Y-96007200D01*
X128911905Y-96007200D02*
X128864286Y-95959580D01*
X177989523Y-82354819D02*
X177513333Y-82354819D01*
X177513333Y-82354819D02*
X177465714Y-82831009D01*
X177465714Y-82831009D02*
X177513333Y-82783390D01*
X177513333Y-82783390D02*
X177608571Y-82735771D01*
X177608571Y-82735771D02*
X177846666Y-82735771D01*
X177846666Y-82735771D02*
X177941904Y-82783390D01*
X177941904Y-82783390D02*
X177989523Y-82831009D01*
X177989523Y-82831009D02*
X178037142Y-82926247D01*
X178037142Y-82926247D02*
X178037142Y-83164342D01*
X178037142Y-83164342D02*
X177989523Y-83259580D01*
X177989523Y-83259580D02*
X177941904Y-83307200D01*
X177941904Y-83307200D02*
X177846666Y-83354819D01*
X177846666Y-83354819D02*
X177608571Y-83354819D01*
X177608571Y-83354819D02*
X177513333Y-83307200D01*
X177513333Y-83307200D02*
X177465714Y-83259580D01*
X178322857Y-82354819D02*
X178656190Y-83354819D01*
X178656190Y-83354819D02*
X178989523Y-82354819D01*
X127911905Y-88434819D02*
X127911905Y-87434819D01*
X127911905Y-87434819D02*
X128150000Y-87434819D01*
X128150000Y-87434819D02*
X128292857Y-87482438D01*
X128292857Y-87482438D02*
X128388095Y-87577676D01*
X128388095Y-87577676D02*
X128435714Y-87672914D01*
X128435714Y-87672914D02*
X128483333Y-87863390D01*
X128483333Y-87863390D02*
X128483333Y-88006247D01*
X128483333Y-88006247D02*
X128435714Y-88196723D01*
X128435714Y-88196723D02*
X128388095Y-88291961D01*
X128388095Y-88291961D02*
X128292857Y-88387200D01*
X128292857Y-88387200D02*
X128150000Y-88434819D01*
X128150000Y-88434819D02*
X127911905Y-88434819D01*
X129340476Y-87768152D02*
X129340476Y-88434819D01*
X129102381Y-87387200D02*
X128864286Y-88101485D01*
X128864286Y-88101485D02*
X129483333Y-88101485D01*
X169345714Y-96054819D02*
X169345714Y-95054819D01*
X169345714Y-95054819D02*
X169583809Y-95054819D01*
X169583809Y-95054819D02*
X169726666Y-95102438D01*
X169726666Y-95102438D02*
X169821904Y-95197676D01*
X169821904Y-95197676D02*
X169869523Y-95292914D01*
X169869523Y-95292914D02*
X169917142Y-95483390D01*
X169917142Y-95483390D02*
X169917142Y-95626247D01*
X169917142Y-95626247D02*
X169869523Y-95816723D01*
X169869523Y-95816723D02*
X169821904Y-95911961D01*
X169821904Y-95911961D02*
X169726666Y-96007200D01*
X169726666Y-96007200D02*
X169583809Y-96054819D01*
X169583809Y-96054819D02*
X169345714Y-96054819D01*
X170298095Y-95150057D02*
X170345714Y-95102438D01*
X170345714Y-95102438D02*
X170440952Y-95054819D01*
X170440952Y-95054819D02*
X170679047Y-95054819D01*
X170679047Y-95054819D02*
X170774285Y-95102438D01*
X170774285Y-95102438D02*
X170821904Y-95150057D01*
X170821904Y-95150057D02*
X170869523Y-95245295D01*
X170869523Y-95245295D02*
X170869523Y-95340533D01*
X170869523Y-95340533D02*
X170821904Y-95483390D01*
X170821904Y-95483390D02*
X170250476Y-96054819D01*
X170250476Y-96054819D02*
X170869523Y-96054819D01*
X171774285Y-95054819D02*
X171298095Y-95054819D01*
X171298095Y-95054819D02*
X171250476Y-95531009D01*
X171250476Y-95531009D02*
X171298095Y-95483390D01*
X171298095Y-95483390D02*
X171393333Y-95435771D01*
X171393333Y-95435771D02*
X171631428Y-95435771D01*
X171631428Y-95435771D02*
X171726666Y-95483390D01*
X171726666Y-95483390D02*
X171774285Y-95531009D01*
X171774285Y-95531009D02*
X171821904Y-95626247D01*
X171821904Y-95626247D02*
X171821904Y-95864342D01*
X171821904Y-95864342D02*
X171774285Y-95959580D01*
X171774285Y-95959580D02*
X171726666Y-96007200D01*
X171726666Y-96007200D02*
X171631428Y-96054819D01*
X171631428Y-96054819D02*
X171393333Y-96054819D01*
X171393333Y-96054819D02*
X171298095Y-96007200D01*
X171298095Y-96007200D02*
X171250476Y-95959580D01*
X127411905Y-77274819D02*
X128030952Y-77274819D01*
X128030952Y-77274819D02*
X127697619Y-77655771D01*
X127697619Y-77655771D02*
X127840476Y-77655771D01*
X127840476Y-77655771D02*
X127935714Y-77703390D01*
X127935714Y-77703390D02*
X127983333Y-77751009D01*
X127983333Y-77751009D02*
X128030952Y-77846247D01*
X128030952Y-77846247D02*
X128030952Y-78084342D01*
X128030952Y-78084342D02*
X127983333Y-78179580D01*
X127983333Y-78179580D02*
X127935714Y-78227200D01*
X127935714Y-78227200D02*
X127840476Y-78274819D01*
X127840476Y-78274819D02*
X127554762Y-78274819D01*
X127554762Y-78274819D02*
X127459524Y-78227200D01*
X127459524Y-78227200D02*
X127411905Y-78179580D01*
X128316667Y-77274819D02*
X128650000Y-78274819D01*
X128650000Y-78274819D02*
X128983333Y-77274819D01*
X129221429Y-77274819D02*
X129840476Y-77274819D01*
X129840476Y-77274819D02*
X129507143Y-77655771D01*
X129507143Y-77655771D02*
X129650000Y-77655771D01*
X129650000Y-77655771D02*
X129745238Y-77703390D01*
X129745238Y-77703390D02*
X129792857Y-77751009D01*
X129792857Y-77751009D02*
X129840476Y-77846247D01*
X129840476Y-77846247D02*
X129840476Y-78084342D01*
X129840476Y-78084342D02*
X129792857Y-78179580D01*
X129792857Y-78179580D02*
X129745238Y-78227200D01*
X129745238Y-78227200D02*
X129650000Y-78274819D01*
X129650000Y-78274819D02*
X129364286Y-78274819D01*
X129364286Y-78274819D02*
X129269048Y-78227200D01*
X129269048Y-78227200D02*
X129221429Y-78179580D01*
X177418095Y-107802438D02*
X177322857Y-107754819D01*
X177322857Y-107754819D02*
X177180000Y-107754819D01*
X177180000Y-107754819D02*
X177037143Y-107802438D01*
X177037143Y-107802438D02*
X176941905Y-107897676D01*
X176941905Y-107897676D02*
X176894286Y-107992914D01*
X176894286Y-107992914D02*
X176846667Y-108183390D01*
X176846667Y-108183390D02*
X176846667Y-108326247D01*
X176846667Y-108326247D02*
X176894286Y-108516723D01*
X176894286Y-108516723D02*
X176941905Y-108611961D01*
X176941905Y-108611961D02*
X177037143Y-108707200D01*
X177037143Y-108707200D02*
X177180000Y-108754819D01*
X177180000Y-108754819D02*
X177275238Y-108754819D01*
X177275238Y-108754819D02*
X177418095Y-108707200D01*
X177418095Y-108707200D02*
X177465714Y-108659580D01*
X177465714Y-108659580D02*
X177465714Y-108326247D01*
X177465714Y-108326247D02*
X177275238Y-108326247D01*
X177894286Y-108754819D02*
X177894286Y-107754819D01*
X177894286Y-107754819D02*
X178465714Y-108754819D01*
X178465714Y-108754819D02*
X178465714Y-107754819D01*
X178941905Y-108754819D02*
X178941905Y-107754819D01*
X178941905Y-107754819D02*
X179180000Y-107754819D01*
X179180000Y-107754819D02*
X179322857Y-107802438D01*
X179322857Y-107802438D02*
X179418095Y-107897676D01*
X179418095Y-107897676D02*
X179465714Y-107992914D01*
X179465714Y-107992914D02*
X179513333Y-108183390D01*
X179513333Y-108183390D02*
X179513333Y-108326247D01*
X179513333Y-108326247D02*
X179465714Y-108516723D01*
X179465714Y-108516723D02*
X179418095Y-108611961D01*
X179418095Y-108611961D02*
X179322857Y-108707200D01*
X179322857Y-108707200D02*
X179180000Y-108754819D01*
X179180000Y-108754819D02*
X178941905Y-108754819D01*
X169702857Y-107754819D02*
X170036190Y-108754819D01*
X170036190Y-108754819D02*
X170369523Y-107754819D01*
X170702857Y-108754819D02*
X170702857Y-107754819D01*
X170702857Y-107754819D02*
X171274285Y-108754819D01*
X171274285Y-108754819D02*
X171274285Y-107754819D01*
X127435714Y-113834819D02*
X127435714Y-112834819D01*
X127435714Y-112834819D02*
X127673809Y-112834819D01*
X127673809Y-112834819D02*
X127816666Y-112882438D01*
X127816666Y-112882438D02*
X127911904Y-112977676D01*
X127911904Y-112977676D02*
X127959523Y-113072914D01*
X127959523Y-113072914D02*
X128007142Y-113263390D01*
X128007142Y-113263390D02*
X128007142Y-113406247D01*
X128007142Y-113406247D02*
X127959523Y-113596723D01*
X127959523Y-113596723D02*
X127911904Y-113691961D01*
X127911904Y-113691961D02*
X127816666Y-113787200D01*
X127816666Y-113787200D02*
X127673809Y-113834819D01*
X127673809Y-113834819D02*
X127435714Y-113834819D01*
X128388095Y-112930057D02*
X128435714Y-112882438D01*
X128435714Y-112882438D02*
X128530952Y-112834819D01*
X128530952Y-112834819D02*
X128769047Y-112834819D01*
X128769047Y-112834819D02*
X128864285Y-112882438D01*
X128864285Y-112882438D02*
X128911904Y-112930057D01*
X128911904Y-112930057D02*
X128959523Y-113025295D01*
X128959523Y-113025295D02*
X128959523Y-113120533D01*
X128959523Y-113120533D02*
X128911904Y-113263390D01*
X128911904Y-113263390D02*
X128340476Y-113834819D01*
X128340476Y-113834819D02*
X128959523Y-113834819D01*
X129292857Y-112834819D02*
X129911904Y-112834819D01*
X129911904Y-112834819D02*
X129578571Y-113215771D01*
X129578571Y-113215771D02*
X129721428Y-113215771D01*
X129721428Y-113215771D02*
X129816666Y-113263390D01*
X129816666Y-113263390D02*
X129864285Y-113311009D01*
X129864285Y-113311009D02*
X129911904Y-113406247D01*
X129911904Y-113406247D02*
X129911904Y-113644342D01*
X129911904Y-113644342D02*
X129864285Y-113739580D01*
X129864285Y-113739580D02*
X129816666Y-113787200D01*
X129816666Y-113787200D02*
X129721428Y-113834819D01*
X129721428Y-113834819D02*
X129435714Y-113834819D01*
X129435714Y-113834819D02*
X129340476Y-113787200D01*
X129340476Y-113787200D02*
X129292857Y-113739580D01*
X169345714Y-90974819D02*
X169345714Y-89974819D01*
X169345714Y-89974819D02*
X169583809Y-89974819D01*
X169583809Y-89974819D02*
X169726666Y-90022438D01*
X169726666Y-90022438D02*
X169821904Y-90117676D01*
X169821904Y-90117676D02*
X169869523Y-90212914D01*
X169869523Y-90212914D02*
X169917142Y-90403390D01*
X169917142Y-90403390D02*
X169917142Y-90546247D01*
X169917142Y-90546247D02*
X169869523Y-90736723D01*
X169869523Y-90736723D02*
X169821904Y-90831961D01*
X169821904Y-90831961D02*
X169726666Y-90927200D01*
X169726666Y-90927200D02*
X169583809Y-90974819D01*
X169583809Y-90974819D02*
X169345714Y-90974819D01*
X170298095Y-90070057D02*
X170345714Y-90022438D01*
X170345714Y-90022438D02*
X170440952Y-89974819D01*
X170440952Y-89974819D02*
X170679047Y-89974819D01*
X170679047Y-89974819D02*
X170774285Y-90022438D01*
X170774285Y-90022438D02*
X170821904Y-90070057D01*
X170821904Y-90070057D02*
X170869523Y-90165295D01*
X170869523Y-90165295D02*
X170869523Y-90260533D01*
X170869523Y-90260533D02*
X170821904Y-90403390D01*
X170821904Y-90403390D02*
X170250476Y-90974819D01*
X170250476Y-90974819D02*
X170869523Y-90974819D01*
X171202857Y-89974819D02*
X171869523Y-89974819D01*
X171869523Y-89974819D02*
X171440952Y-90974819D01*
X169345714Y-106214819D02*
X169345714Y-105214819D01*
X169345714Y-105214819D02*
X169583809Y-105214819D01*
X169583809Y-105214819D02*
X169726666Y-105262438D01*
X169726666Y-105262438D02*
X169821904Y-105357676D01*
X169821904Y-105357676D02*
X169869523Y-105452914D01*
X169869523Y-105452914D02*
X169917142Y-105643390D01*
X169917142Y-105643390D02*
X169917142Y-105786247D01*
X169917142Y-105786247D02*
X169869523Y-105976723D01*
X169869523Y-105976723D02*
X169821904Y-106071961D01*
X169821904Y-106071961D02*
X169726666Y-106167200D01*
X169726666Y-106167200D02*
X169583809Y-106214819D01*
X169583809Y-106214819D02*
X169345714Y-106214819D01*
X170250476Y-105214819D02*
X170869523Y-105214819D01*
X170869523Y-105214819D02*
X170536190Y-105595771D01*
X170536190Y-105595771D02*
X170679047Y-105595771D01*
X170679047Y-105595771D02*
X170774285Y-105643390D01*
X170774285Y-105643390D02*
X170821904Y-105691009D01*
X170821904Y-105691009D02*
X170869523Y-105786247D01*
X170869523Y-105786247D02*
X170869523Y-106024342D01*
X170869523Y-106024342D02*
X170821904Y-106119580D01*
X170821904Y-106119580D02*
X170774285Y-106167200D01*
X170774285Y-106167200D02*
X170679047Y-106214819D01*
X170679047Y-106214819D02*
X170393333Y-106214819D01*
X170393333Y-106214819D02*
X170298095Y-106167200D01*
X170298095Y-106167200D02*
X170250476Y-106119580D01*
X171726666Y-105548152D02*
X171726666Y-106214819D01*
X171488571Y-105167200D02*
X171250476Y-105881485D01*
X171250476Y-105881485D02*
X171869523Y-105881485D01*
X127888095Y-79862438D02*
X127792857Y-79814819D01*
X127792857Y-79814819D02*
X127650000Y-79814819D01*
X127650000Y-79814819D02*
X127507143Y-79862438D01*
X127507143Y-79862438D02*
X127411905Y-79957676D01*
X127411905Y-79957676D02*
X127364286Y-80052914D01*
X127364286Y-80052914D02*
X127316667Y-80243390D01*
X127316667Y-80243390D02*
X127316667Y-80386247D01*
X127316667Y-80386247D02*
X127364286Y-80576723D01*
X127364286Y-80576723D02*
X127411905Y-80671961D01*
X127411905Y-80671961D02*
X127507143Y-80767200D01*
X127507143Y-80767200D02*
X127650000Y-80814819D01*
X127650000Y-80814819D02*
X127745238Y-80814819D01*
X127745238Y-80814819D02*
X127888095Y-80767200D01*
X127888095Y-80767200D02*
X127935714Y-80719580D01*
X127935714Y-80719580D02*
X127935714Y-80386247D01*
X127935714Y-80386247D02*
X127745238Y-80386247D01*
X128364286Y-80814819D02*
X128364286Y-79814819D01*
X128364286Y-79814819D02*
X128935714Y-80814819D01*
X128935714Y-80814819D02*
X128935714Y-79814819D01*
X129411905Y-80814819D02*
X129411905Y-79814819D01*
X129411905Y-79814819D02*
X129650000Y-79814819D01*
X129650000Y-79814819D02*
X129792857Y-79862438D01*
X129792857Y-79862438D02*
X129888095Y-79957676D01*
X129888095Y-79957676D02*
X129935714Y-80052914D01*
X129935714Y-80052914D02*
X129983333Y-80243390D01*
X129983333Y-80243390D02*
X129983333Y-80386247D01*
X129983333Y-80386247D02*
X129935714Y-80576723D01*
X129935714Y-80576723D02*
X129888095Y-80671961D01*
X129888095Y-80671961D02*
X129792857Y-80767200D01*
X129792857Y-80767200D02*
X129650000Y-80814819D01*
X129650000Y-80814819D02*
X129411905Y-80814819D01*
X166416666Y-74504819D02*
X166416666Y-75219104D01*
X166416666Y-75219104D02*
X166369047Y-75361961D01*
X166369047Y-75361961D02*
X166273809Y-75457200D01*
X166273809Y-75457200D02*
X166130952Y-75504819D01*
X166130952Y-75504819D02*
X166035714Y-75504819D01*
X167416666Y-75504819D02*
X166845238Y-75504819D01*
X167130952Y-75504819D02*
X167130952Y-74504819D01*
X167130952Y-74504819D02*
X167035714Y-74647676D01*
X167035714Y-74647676D02*
X166940476Y-74742914D01*
X166940476Y-74742914D02*
X166845238Y-74790533D01*
D10*
X148809524Y-94933609D02*
X149142857Y-94933609D01*
X149285714Y-95457419D02*
X148809524Y-95457419D01*
X148809524Y-95457419D02*
X148809524Y-94457419D01*
X148809524Y-94457419D02*
X149285714Y-94457419D01*
X150238095Y-95457419D02*
X149666667Y-95457419D01*
X149952381Y-95457419D02*
X149952381Y-94457419D01*
X149952381Y-94457419D02*
X149857143Y-94600276D01*
X149857143Y-94600276D02*
X149761905Y-94695514D01*
X149761905Y-94695514D02*
X149666667Y-94743133D01*
D11*
X174036666Y-74504819D02*
X174036666Y-75219104D01*
X174036666Y-75219104D02*
X173989047Y-75361961D01*
X173989047Y-75361961D02*
X173893809Y-75457200D01*
X173893809Y-75457200D02*
X173750952Y-75504819D01*
X173750952Y-75504819D02*
X173655714Y-75504819D01*
X174417619Y-74504819D02*
X175036666Y-74504819D01*
X175036666Y-74504819D02*
X174703333Y-74885771D01*
X174703333Y-74885771D02*
X174846190Y-74885771D01*
X174846190Y-74885771D02*
X174941428Y-74933390D01*
X174941428Y-74933390D02*
X174989047Y-74981009D01*
X174989047Y-74981009D02*
X175036666Y-75076247D01*
X175036666Y-75076247D02*
X175036666Y-75314342D01*
X175036666Y-75314342D02*
X174989047Y-75409580D01*
X174989047Y-75409580D02*
X174941428Y-75457200D01*
X174941428Y-75457200D02*
X174846190Y-75504819D01*
X174846190Y-75504819D02*
X174560476Y-75504819D01*
X174560476Y-75504819D02*
X174465238Y-75457200D01*
X174465238Y-75457200D02*
X174417619Y-75409580D01*
X132166666Y-74454819D02*
X132166666Y-75169104D01*
X132166666Y-75169104D02*
X132119047Y-75311961D01*
X132119047Y-75311961D02*
X132023809Y-75407200D01*
X132023809Y-75407200D02*
X131880952Y-75454819D01*
X131880952Y-75454819D02*
X131785714Y-75454819D01*
X132595238Y-74550057D02*
X132642857Y-74502438D01*
X132642857Y-74502438D02*
X132738095Y-74454819D01*
X132738095Y-74454819D02*
X132976190Y-74454819D01*
X132976190Y-74454819D02*
X133071428Y-74502438D01*
X133071428Y-74502438D02*
X133119047Y-74550057D01*
X133119047Y-74550057D02*
X133166666Y-74645295D01*
X133166666Y-74645295D02*
X133166666Y-74740533D01*
X133166666Y-74740533D02*
X133119047Y-74883390D01*
X133119047Y-74883390D02*
X132547619Y-75454819D01*
X132547619Y-75454819D02*
X133166666Y-75454819D01*
D12*
%TO.C,J1*%
X165360000Y-76550000D02*
X165420000Y-114710000D01*
X165360000Y-76550000D02*
X168020000Y-76550000D01*
X165420000Y-114710000D02*
X168080000Y-114710000D01*
X168080000Y-76550000D02*
X168080000Y-114710000D01*
D10*
%TO.C,E1*%
X145000000Y-68000000D02*
X145000000Y-69000000D01*
X154000000Y-68000000D02*
X145000000Y-68000000D01*
X154000000Y-69000000D02*
X154000000Y-68000000D01*
X135300000Y-69000000D02*
X163700000Y-69000000D01*
X163700000Y-121000000D01*
X135300000Y-121000000D01*
X135300000Y-69000000D01*
D12*
%TO.C,J3*%
X173040000Y-76550000D02*
X173040000Y-114710000D01*
X173040000Y-76550000D02*
X175700000Y-76550000D01*
X173040000Y-114710000D02*
X175700000Y-114710000D01*
X175700000Y-76550000D02*
X175700000Y-114710000D01*
%TO.C,J2*%
X131130000Y-114650000D02*
X131130000Y-76490000D01*
X133790000Y-76490000D02*
X131130000Y-76490000D01*
X133790000Y-114650000D02*
X131130000Y-114650000D01*
X133790000Y-114650000D02*
X133790000Y-76490000D01*
%TD*%
M02*
