M48
; DRILL file {KiCad 9.0.1-9.0.1-0~ubuntu24.04.1} date 2025-04-06T11:53:25+0100
; FORMAT={-:-/ absolute / metric / decimal}
; #@! TF.CreationDate,2025-04-06T11:53:25+01:00
; #@! TF.GenerationSoftware,Kicad,Pcbnew,9.0.1-9.0.1-0~ubuntu24.04.1
; #@! TF.FileFunction,Plated,1,2,PTH
FMAT,2
METRIC
; #@! TA.AperFunction,Plated,PTH,ComponentDrill
T1C1.000
; #@! TA.AperFunction,Plated,PTH,ComponentDrill
T2C1.020
%
G90
G05
T1
X132.46Y-77.82
X132.46Y-80.36
X132.46Y-82.9
X132.46Y-85.44
X132.46Y-87.98
X132.46Y-90.52
X132.46Y-93.06
X132.46Y-95.6
X132.46Y-98.14
X132.46Y-100.68
X132.46Y-103.22
X132.46Y-105.76
X132.46Y-108.3
X132.46Y-110.84
X132.46Y-113.38
X166.75Y-77.82
X166.75Y-80.36
X166.75Y-82.9
X166.75Y-85.44
X166.75Y-87.98
X166.75Y-90.52
X166.75Y-93.06
X166.75Y-95.6
X166.75Y-98.14
X166.75Y-100.68
X166.75Y-103.22
X166.75Y-105.76
X166.75Y-108.3
X166.75Y-110.84
X166.75Y-113.38
X174.37Y-77.82
X174.37Y-80.36
X174.37Y-82.9
X174.37Y-85.44
X174.37Y-87.98
X174.37Y-90.52
X174.37Y-93.06
X174.37Y-95.6
X174.37Y-98.14
X174.37Y-100.68
X174.37Y-103.22
X174.37Y-105.76
X174.37Y-108.3
X174.37Y-110.84
X174.37Y-113.38
T2
X137.0Y-78.0
X137.0Y-80.54
X137.0Y-83.08
X137.0Y-85.62
X137.0Y-88.16
X137.0Y-90.7
X137.0Y-93.24
X137.0Y-95.78
X137.0Y-98.32
X137.0Y-100.86
X137.0Y-103.4
X137.0Y-105.94
X137.0Y-108.48
X137.0Y-111.02
X137.0Y-113.56
X162.0Y-78.0
X162.0Y-80.54
X162.0Y-83.08
X162.0Y-85.62
X162.0Y-88.16
X162.0Y-90.7
X162.0Y-93.24
X162.0Y-95.78
X162.0Y-98.32
X162.0Y-100.86
X162.0Y-103.4
X162.0Y-105.94
X162.0Y-108.48
X162.0Y-111.02
X162.0Y-113.56
M30
